<?xml version="1.0" standalone="no"?>
<!DOCTYPE svg PUBLIC "-//W3C//DTD SVG 1.1//EN" "http://www.w3.org/Graphics/SVG/1.1/DTD/svg11.dtd" >
<svg xmlns="http://www.w3.org/2000/svg">
    <defs>
        <font id="Exo2.0-Thin">
            <font-face font-family="Exo2.0-Thin"
                       units-per-em="1000"
                       ascent="990"
                       descent="-210"
                       bbox="-173 -259 1179 919"
                    />
            <missing-glyph horiz-adv-x="0" />
            
            <glyph glyph-name="!" unicode="&#x21;" horiz-adv-x="144" d=" M139,354 L137,203 L116,203 L114,354 L114,695 L139,695 M122,86 L132,86 Q144,86 144,74 L144,12 Q144,0 132,0 L122,0 Q110,0 110,12 L110,74 Q110,86 122,86"/> 
            <glyph glyph-name="&quot;" unicode="&#x22;" horiz-adv-x="239" d=" M112,482 L88,482 L88,690 L112,690 M239,482 L215,482 L215,690 L239,690"/> 
            <glyph glyph-name="#" unicode="&#x23;" horiz-adv-x="607" d=" M494,470 L455,250 L565,250 L561,228 L452,228 L412,0 L387,0 L427,228 L201,228 L161,0 L136,0 L176,228 L60,228 L64,250 L179,250 L218,470 L102,470 L106,492 L222,492 L256,690 L281,690 L247,492 L473,492 L507,690 L532,690 L498,492 L607,492 L603,470 M469,470 L243,470 L204,250 L430,250"/> 
            <glyph glyph-name="$" unicode="&#x24;" horiz-adv-x="495" d=" M295,358 L356,350 Q432,341 463.5,300 Q495,259 495,169 Q495,121 485.5,87.5 Q476,54 460.5,34.5 Q445,15 416.5,5 Q388,-5 359.5,-8 Q331,-11 285,-11 L275,-11 L268,-135 L247,-135 L254,-11 Q159,-9 81,0 L84,19 Q174,12 255,12 L272,337 L203,347 Q131,355 100,397 Q69,439 69,524 Q69,585 80.5,621.5 Q92,658 121.5,675.5 Q151,693 184,697.5 Q217,702 277,701 L292,701 L297,804 L318,804 L313,700 Q403,696 464,689 L461,670 Q339,677 311,678 M290,678 L277,678 Q238,678 218.5,677 Q199,676 173.5,671.5 Q148,667 136.5,657.5 Q125,648 113.5,631 Q102,614 98,588 Q94,562 94,524 Q94,448 119,413.5 Q144,379 203,371 L274,361 M276,12 L286,12 Q341,13 372,18 Q403,23 427,39.5 Q451,56 460.5,87 Q470,118 470,169 Q470,250 444.5,284 Q419,318 356,326 L293,335"/> 
            <glyph glyph-name="%" unicode="&#x25;" horiz-adv-x="822" d=" M129,702 Q293,702 327,653.5 Q361,605 361,498 Q361,391 327,342.5 Q293,294 211,294 Q129,294 95,342.5 Q61,391 61,498 Q61,605 129,702 M212,0 L188,0 L668,690 L692,690 M281,683 Q141,683 112.5,639.5 Q84,596 84,498 Q84,400 112.5,356.5 Q141,313 211,313 Q281,313 309.5,356.5 Q338,400 338,498 Q338,596 281,683 M590,401 Q754,401 788,352.5 Q822,304 822,197 Q822,90 788,41.5 Q754,-7 672,-7 Q590,-7 556,41.5 Q522,90 522,197 Q522,304 590,401 M742,382 Q602,382 573.5,338.5 Q545,295 545,197 Q545,99 573.5,55.5 Q602,12 672,12 Q742,12 770.5,55.5 Q799,99 799,197 Q799,295 742,382"/> 
            <glyph glyph-name="&amp;" unicode="&#x26;" horiz-adv-x="726" d=" M723,16 L726,0 Q686,-6 641,-6 Q531,-6 531,95 L531,96 Q483,39 424,15.5 Q365,-8 279,-8 Q170,-8 125,31.5 Q80,71 80,174 Q80,258 111,304 Q142,350 217,356 L217,360 Q154,365 127,405 Q100,445 100,521 Q100,569 110.5,601 Q121,633 139,652.5 Q157,672 191,682 Q225,692 261.5,695 Q298,698 357,698 Q445,698 516,690 L512,672 Q483,675 356,675 Q220,675 173,646.5 Q126,618 126,520 Q126,430 164,399 Q202,368 302,368 L531,368 L537,524 L555,524 L555,368 L696,368 L693,347 L555,347 L555,96 Q555,16 635,16 M531,347 L302,347 Q193,347 149.5,310 Q106,273 106,174 Q106,84 143.5,49.5 Q181,15 277,15 Q367,15 425.5,42 Q484,69 531,130"/> 
            <glyph glyph-name="'" unicode="&#x27;" horiz-adv-x="112" d=" M112,482 L88,482 L88,690 L112,690"/> 
            <glyph glyph-name="(" unicode="&#x28;" horiz-adv-x="310" d=" M306,790 L310,772 Q200,715 147.5,603.5 Q95,492 95,313 Q95,137 147.5,25 Q200,-87 310,-147 L306,-165 Q184,-107 126.5,8.5 Q69,124 69,312 Q69,501 126.5,617 Q184,733 306,790"/> 
            <glyph glyph-name=")" unicode="&#x29;" horiz-adv-x="286" d=" M45,772 L49,790 Q171,733 228.5,617 Q286,501 286,312 Q286,124 228.5,8.5 Q171,-107 49,-165 L45,-147 Q155,-87 207.5,25 Q260,137 260,313 Q260,492 207.5,603.5 Q155,715 45,772"/> 
            <glyph glyph-name="*" unicode="&#x2A;" horiz-adv-x="382" d=" M234,537 L328,408 L310,395 L226,520 L143,396 L124,409 L218,537 L215,690 L239,690 M202,548 L201,539 L197,531 L72,570 L80,592 M382,568 L255,531 L251,539 L251,548 L374,590"/> 
            <glyph glyph-name="+" unicode="&#x2B;" horiz-adv-x="485" d=" M485,286 L287,286 L287,99 L266,99 L266,286 L68,286 L68,308 L265,308 L265,495 L288,495 L288,308 L485,308"/> 
            <glyph glyph-name="," unicode="&#x2C;" horiz-adv-x="121" d=" M100,86 L109,86 Q121,86 121,74 L121,10 Q119,-60 103,-117 L91,-112 Q95,-59 95,0 Q86,0 89,10 L89,74 Q88,86 100,86"/> 
            <glyph glyph-name="-" unicode="&#x2D;" horiz-adv-x="397" d=" M397,240 L86,240 L86,262 L397,262"/> 
            <glyph glyph-name="." unicode="&#x2E;" horiz-adv-x="120" d=" M98,86 L108,86 Q120,86 120,74 L120,12 Q120,0 108,0 L98,0 Q86,0 86,12 L86,74 Q86,86 98,86"/> 
            <glyph glyph-name="/" unicode="&#x2F;" horiz-adv-x="456" d=" M63,-59 L38,-59 L431,690 L456,690"/> 
            <glyph glyph-name="0" unicode="&#x30;" horiz-adv-x="507" d=" M174,702 Q410,702 458.5,617 Q507,532 507,345 Q507,158 458.5,73 Q410,-12 292,-12 Q174,-12 125.5,73 Q77,158 77,345 Q77,532 174,702 M396,679 Q188,679 145.5,600 Q103,521 103,345 Q103,169 145.5,90 Q188,11 292,11 Q396,11 438.5,90 Q481,169 481,345 Q481,521 396,679"/> 
            <glyph glyph-name="1" unicode="&#x31;" horiz-adv-x="251" d=" M251,0 L226,0 L226,618 Q226,642 229,664 L42,601 L37,617 L226,690 L251,690"/> 
            <glyph glyph-name="2" unicode="&#x32;" horiz-adv-x="496" d=" M74,657 L68,675 Q180,702 264,702 Q370,702 417.5,674.5 Q465,647 465,564 Q465,497 433,437 Q401,377 326,290 L94,22 L214,22 L496,22 L496,0 L62,0 L62,14 Q62,21 67,28 L307,305 Q378,388 409,449.5 Q440,511 438,572 Q435,639 394.5,659 Q354,679 269,679 Q178,679 74,657"/> 
            <glyph glyph-name="3" unicode="&#x33;" horiz-adv-x="474" d=" M78,667 L71,685 Q168,702 247,702 Q363,702 408,667.5 Q453,633 453,543 Q453,391 344,369 L344,365 Q469,346 472,192 Q474,87 427,37.5 Q380,-12 266,-12 Q184,-12 61,5 L67,23 Q181,11 264,11 Q361,11 404,52.5 Q447,94 447,192 Q447,226 440,252.5 Q433,279 415.5,303.5 Q398,328 362.5,341.5 Q327,355 276,356 L147,356 L147,374 L276,377 Q429,380 429,542 Q427,622 388,650.5 Q349,679 248,679 Q168,679 78,667"/> 
            <glyph glyph-name="4" unicode="&#x34;" horiz-adv-x="540" d=" M540,200 L458,197 L458,0 L433,0 L433,196 L105,196 Q74,196 59,221 Q44,246 59,274 L282,690 L308,690 L82,267 Q72,249 81.5,233.5 Q91,218 111,218 L433,218 L433,443 L440,560 L458,560 L458,218 L540,218"/> 
            <glyph glyph-name="5" unicode="&#x35;" horiz-adv-x="458" d=" M435,668 L126,668 L114,403 L169,403 Q252,402 300,395 Q348,388 387,367.5 Q426,347 442,307.5 Q458,268 458,203 Q458,166 454.5,138.5 Q451,111 438.5,81 Q426,51 403.5,32 Q381,13 341.5,0.5 Q302,-12 247,-12 Q165,-12 65,16 L71,34 Q169,10 245,10 Q304,10 342.5,23.5 Q381,37 400.5,64.5 Q420,92 427,124 Q434,156 434,203 Q434,245 427,274.5 Q420,304 401.5,324 Q383,344 362,355 Q341,366 300,372 Q259,378 220.5,379.5 Q182,381 117,381 L103,381 Q97,381 93,385 Q89,389 90,395 L104,690 L438,690"/> 
            <glyph glyph-name="6" unicode="&#x36;" horiz-adv-x="497" d=" M453,690 L445,672 Q407,679 334,679 Q281,679 247,671.5 Q213,664 184.5,644 Q156,624 141,585.5 Q126,547 117.5,488 Q109,429 107,341 Q152,397 197,419 Q242,441 310,441 Q417,441 457,390 Q497,339 497,206 Q497,150 490,114 Q483,78 462,47 Q441,16 399.5,2 Q358,-12 293,-12 Q238,-12 201,-0.5 Q164,11 140,32 Q116,53 103,93 Q90,133 85.5,181 Q81,229 81,302 Q81,407 90.5,477.5 Q100,548 117,593 Q134,638 166.5,661.5 Q199,685 237,693.5 Q275,702 334,702 Q405,702 453,690 M294,10 Q403,10 437.5,57 Q472,104 472,209 Q472,326 438,372.5 Q404,419 308,419 Q248,419 203,397.5 Q158,376 107,318 L107,299 Q107,232 110.5,189.5 Q114,147 125,109.5 Q136,72 156.5,52 Q177,32 210.5,21 Q244,10 294,10"/> 
            <glyph glyph-name="7" unicode="&#x37;" horiz-adv-x="463" d=" M48,690 L425,690 Q450,690 456.5,681 Q463,672 455,649 L229,0 L204,0 L423,630 Q425,636 429.5,649 Q434,662 436,668 L50,668"/> 
            <glyph glyph-name="8" unicode="&#x38;" horiz-adv-x="526" d=" M198,356 L198,360 Q146,366 122.5,404.5 Q99,443 99,518 Q99,615 143,656.5 Q187,698 306,698 Q425,699 468.5,657 Q512,615 512,518 Q512,443 488.5,404.5 Q465,366 413,360 L413,356 Q475,349 500.5,305.5 Q526,262 526,172 Q526,71 481,32 Q436,-7 306,-8 Q178,-9 131.5,31 Q85,71 85,172 Q85,262 110.5,305.5 Q136,349 198,356 M306,675 Q198,675 161,641 Q124,607 124,518 Q124,423 159,396 Q194,369 307,369 Q421,369 454,396 Q487,423 487,518 Q487,608 451,641.5 Q415,675 306,675 M307,347 Q243,347 208,341 Q173,335 149,315.5 Q125,296 117.5,263.5 Q110,231 110,172 Q110,85 150.5,50.5 Q191,16 306,16 Q422,16 461.5,50 Q501,84 501,172 Q501,231 493.5,264.5 Q486,298 462,317 Q438,336 404,341.5 Q370,347 307,347"/> 
            <glyph glyph-name="9" unicode="&#x39;" horiz-adv-x="480" d=" M102,0 L110,18 Q167,11 227,11 Q280,11 314,18 Q348,25 377,45 Q406,65 421.5,103 Q437,141 445.5,200.5 Q454,260 454,349 Q409,293 364,271 Q319,249 252,249 Q152,249 109.5,304.5 Q67,360 67,474 Q67,589 111,645.5 Q155,702 270,702 Q312,702 343,696 Q374,690 397,679.5 Q420,669 434.5,647 Q449,625 458.5,602 Q468,579 472.5,537.5 Q477,496 478.5,456.5 Q480,417 480,354 Q480,259 470.5,194 Q461,129 443,88 Q425,47 392.5,25 Q360,3 322.5,-4.5 Q285,-12 227,-12 Q154,-12 102,0 M254,271 Q313,271 358,292.5 Q403,314 454,372 Q454,421 453,452 Q452,483 449.5,517 Q447,551 441.5,571 Q436,591 427,612 Q418,633 404.5,643.5 Q391,654 371.5,663.5 Q352,673 327.5,676.5 Q303,680 270,680 Q168,680 130,628.5 Q92,577 92,472 Q92,371 128,321 Q164,271 254,271"/> 
            <glyph glyph-name=":" unicode="&#x3A;" horiz-adv-x="120" d=" M98,430 L108,430 Q120,430 120,418 L120,356 Q120,344 108,344 L98,344 Q86,344 86,356 L86,418 Q86,430 98,430 M98,86 L108,86 Q120,86 120,74 L120,12 Q120,0 108,0 L98,0 Q86,0 86,12 L86,74 Q86,86 98,86"/> 
            <glyph glyph-name=";" unicode="&#x3B;" horiz-adv-x="121" d=" M98,430 L108,430 Q120,430 120,418 L120,356 Q120,344 108,344 L98,344 Q86,344 86,356 L86,418 Q86,430 98,430 M100,86 L109,86 Q121,86 121,74 L121,10 Q119,-60 103,-117 L91,-112 Q95,-59 95,0 Q86,0 89,10 L89,74 Q88,86 100,86"/> 
            <glyph glyph-name="&lt;" unicode="&#x3C;" horiz-adv-x="458" d=" M458,467 L89,295 L458,129 L458,107 L65,284 L65,306 L458,489"/> 
            <glyph glyph-name="=" unicode="&#x3D;" horiz-adv-x="503" d=" M503,385 L86,385 L86,407 L503,407 M503,173 L86,173 L86,195 L503,195"/> 
            <glyph glyph-name="&gt;" unicode="&#x3E;" horiz-adv-x="476" d=" M476,306 L476,284 L83,107 L83,129 L452,295 L83,467 L83,489"/> 
            <glyph glyph-name="?" unicode="&#x3F;" horiz-adv-x="449" d=" M55,676 L50,694 Q59,695 79,698.5 Q99,702 107.5,703 Q116,704 134,706.5 Q152,709 166.5,710 Q181,711 203.5,711.5 Q226,712 253,712 Q449,712 449,557 Q449,515 429.5,479.5 Q410,444 382,416.5 Q354,389 326,361 Q298,333 278.5,292.5 Q259,252 259,203 L235,203 Q235,257 254.5,300 Q274,343 302,371.5 Q330,400 357.5,426 Q385,452 404.5,485 Q424,518 424,557 Q424,625 382.5,657.5 Q341,690 253,690 Q159,690 55,676 M241,86 L251,86 Q263,86 263,74 L263,12 Q263,0 251,0 L241,0 Q229,0 229,12 L229,74 Q229,86 241,86"/> 
            <glyph glyph-name="@" unicode="&#x40;" horiz-adv-x="608" d=" M337,567 L477,567 Q608,567 608,450 L608,129 L591,129 L586,210 Q550,179 484,151.5 Q418,124 355,124 Q296,124 263.5,151.5 Q231,179 231,229 L231,283 Q231,330 261,355.5 Q291,381 345,381 L586,381 L586,450 Q586,546 476,545 L338,545 Q283,545 253.5,543 Q224,541 195.5,530.5 Q167,520 155,504.5 Q143,489 132.5,454.5 Q122,420 120,377.5 Q118,335 118,265 Q118,210 119,174 Q120,138 125.5,105 Q131,72 137,53 Q143,34 158,18 Q173,2 188,-5.5 Q203,-13 232,-18 Q261,-23 288.5,-24 Q316,-25 362,-25 L603,-25 L603,-44 Q483,-47 363,-47 Q298,-48 258.5,-45.5 Q219,-43 186,-30 Q153,-17 137,1.5 Q121,20 110,59 Q99,98 96.5,143 Q94,188 94,264 Q94,337 96.5,380.5 Q99,424 109,461.5 Q119,499 133,516.5 Q147,534 177,547 Q207,560 242.5,563 Q278,566 337,567 M586,364 L345,360 Q255,357 255,283 L255,230 Q255,148 354,146 Q409,145 475.5,170 Q542,195 586,231"/> 
            <glyph glyph-name="A" unicode="&#x41;" horiz-adv-x="584" d=" M466,252 L137,252 L46,0 L19,0 L267,681 Q270,690 280,690 L323,690 Q333,690 336,681 L584,0 L557,0 M458,274 L336,612 L316,668 L287,668 L267,612 L145,274"/> 
            <glyph glyph-name="B" unicode="&#x42;" horiz-adv-x="539" d=" M402,360 L402,356 Q476,349 507.5,303.5 Q539,258 539,172 Q539,67 492.5,29.5 Q446,-8 327,-8 Q184,-8 103,0 L103,690 Q174,698 297,698 Q422,698 470.5,660.5 Q519,623 519,518 Q519,443 491,404.5 Q463,366 402,360 M128,368 L317,368 Q416,369 454.5,399.5 Q493,430 493,518 Q493,612 450.5,643.5 Q408,675 297,675 Q188,675 128,673 M128,347 L128,17 Q198,15 327,15 Q433,15 473,46.5 Q513,78 513,172 Q513,273 470,309 Q427,345 317,347"/> 
            <glyph glyph-name="C" unicode="&#x43;" horiz-adv-x="519" d=" M513,24 L519,6 Q440,-12 331,-12 Q189,-12 132.5,67.5 Q76,147 76,345 Q76,543 132.5,622.5 Q189,702 331,702 Q431,702 505,685 L499,667 Q424,679 331,679 Q203,679 152.5,605 Q102,531 102,345 Q102,159 152.5,85 Q203,11 331,11 Q438,11 513,24"/> 
            <glyph glyph-name="D" unicode="&#x44;" horiz-adv-x="583" d=" M103,0 L103,690 Q222,699 332,699 Q471,699 527,619.5 Q583,540 583,345 Q583,150 527,70.5 Q471,-9 332,-9 Q224,-9 103,0 M128,672 L128,17 Q308,14 332,14 Q457,14 507,87.5 Q557,161 557,345 Q557,529 507,602.5 Q457,676 332,676 Q250,676 128,672"/> 
            <glyph glyph-name="E" unicode="&#x45;" horiz-adv-x="493" d=" M491,22 L493,4 Q395,0 199,0 Q155,0 126,29 Q97,58 97,102 L97,588 Q97,632 126,661 Q155,690 199,690 Q395,690 493,686 L491,668 L204,668 Q168,668 145,645 Q122,622 122,586 L122,380 L450,380 L450,359 L122,359 L122,104 Q122,68 145,45 Q168,22 204,22"/> 
            <glyph glyph-name="F" unicode="&#x46;" horiz-adv-x="489" d=" M487,668 L207,668 Q171,668 148,645 Q125,622 125,586 L125,376 L446,376 L446,355 L125,355 L125,0 L100,0 L100,588 Q100,632 129,661 Q158,690 202,690 Q393,690 489,686"/> 
            <glyph glyph-name="G" unicode="&#x47;" horiz-adv-x="541" d=" M541,400 L541,0 L524,0 L518,89 Q424,-12 304,-12 Q182,-12 129,72 Q76,156 76,345 Q76,543 133.5,622.5 Q191,702 334,702 Q446,702 530,685 L524,667 Q440,679 334,679 Q204,679 153,605 Q102,531 102,345 Q102,168 149,89.5 Q196,11 306,11 Q341,11 371,19 Q401,27 429.5,45 Q458,63 473,75 Q488,87 516,112 L516,400"/> 
            <glyph glyph-name="H" unicode="&#x48;" horiz-adv-x="554" d=" M554,690 L554,0 L529,0 L529,359 L128,359 L128,0 L103,0 L103,690 L128,690 L128,381 L529,381 L529,690"/> 
            <glyph glyph-name="I" unicode="&#x49;" horiz-adv-x="128" d=" M128,0 L103,0 L103,690 L128,690"/> 
            <glyph glyph-name="J" unicode="&#x4A;" horiz-adv-x="224" d=" M224,690 L224,115 Q224,-7 102,-6 Q74,-6 38,0 L41,16 L99,16 Q199,16 199,116 L199,690"/> 
            <glyph glyph-name="K" unicode="&#x4B;" horiz-adv-x="529" d=" M239,349 L125,349 Q127,318 127,263 L127,0 L103,0 L103,690 L127,690 L127,454 Q127,431 125,371 L239,371 L482,690 L512,690 L281,385 Q270,370 259,361 L259,359 Q277,341 281,336 L529,0 L499,0"/> 
            <glyph glyph-name="L" unicode="&#x4C;" horiz-adv-x="479" d=" M125,690 L125,104 Q125,68 148,45 Q171,22 207,22 L479,22 L479,4 Q387,0 202,0 Q158,0 129,29 Q100,58 100,102 L100,690"/> 
            <glyph glyph-name="M" unicode="&#x4D;" horiz-adv-x="766" d=" M679,690 L721,690 Q736,690 736,675 L766,0 L741,0 L711,668 L687,668 L461,69 Q458,60 448,60 L406,60 Q396,60 393,69 L167,668 L143,668 L113,0 L88,0 L118,675 Q118,690 133,690 L175,690 Q185,690 188,681 L379,176 Q385,160 396.5,129 Q408,98 414,82 L440,82 L476,178 L666,681 Q669,690 679,690"/> 
            <glyph glyph-name="N" unicode="&#x4E;" horiz-adv-x="585" d=" M585,690 L585,15 Q585,0 570,0 L528,0 Q516,0 510,11 L190,600 Q184,611 171.5,634 Q159,657 153,668 L128,668 L128,599 L128,0 L103,0 L103,675 Q103,690 118,690 L157,690 Q170,690 175,679 L488,103 L532,22 L560,22 L560,112 L560,690"/> 
            <glyph glyph-name="O" unicode="&#x4F;" horiz-adv-x="586" d=" M189,702 Q473,702 529.5,622.5 Q586,543 586,345 Q586,147 529.5,67.5 Q473,-12 331,-12 Q189,-12 132.5,67.5 Q76,147 76,345 Q76,543 189,702 M459,679 Q203,679 152.5,605 Q102,531 102,345 Q102,159 152.5,85 Q203,11 331,11 Q459,11 509.5,85 Q560,159 560,345 Q560,531 459,679"/> 
            <glyph glyph-name="P" unicode="&#x50;" horiz-adv-x="523" d=" M103,0 L103,690 Q183,698 324,698 Q435,698 479,655 Q523,612 523,495 Q523,377 479.5,334.5 Q436,292 324,292 Q196,292 128,296 L128,0 M128,315 L324,315 Q422,317 459.5,353.5 Q497,390 497,495 Q497,600 459,637.5 Q421,675 324,675 Q196,675 128,673"/> 
            <glyph glyph-name="Q" unicode="&#x51;" horiz-adv-x="586" d=" M189,702 Q473,702 529.5,622.5 Q586,543 586,345 Q586,147 529.5,67.5 Q473,-12 331,-12 Q189,-12 132.5,67.5 Q76,147 76,345 Q76,543 189,702 M459,679 Q203,679 152.5,605 Q102,531 102,345 Q102,159 152.5,85 Q203,11 331,11 Q459,11 509.5,85 Q560,159 560,345 Q560,531 459,679 M286,-65 L298,-51 Q387,-114 522,-136 L515,-161 Q379,-142 286,-65"/> 
            <glyph glyph-name="R" unicode="&#x52;" horiz-adv-x="548" d=" M548,0 L520,0 L446,218 Q414,310 333,310 Q196,310 128,314 L128,0 L103,0 L103,690 Q183,698 324,698 Q436,698 479.5,657.5 Q523,617 523,504 Q523,412 493.5,371 Q464,330 396,320 L396,316 Q444,301 472,221 M128,333 L324,333 Q421,335 459,370.5 Q497,406 497,504 Q497,604 459,639.5 Q421,675 324,675 Q196,675 128,673"/> 
            <glyph glyph-name="S" unicode="&#x53;" horiz-adv-x="492" d=" M353,326 L200,347 Q128,355 97,397 Q66,439 66,524 Q66,585 77.5,621.5 Q89,658 118.5,675.5 Q148,693 181,697.5 Q214,702 274,701 Q371,699 461,689 L458,670 Q338,678 274,678 Q235,678 215.5,677 Q196,676 170.5,671.5 Q145,667 133.5,657.5 Q122,648 110.5,631 Q99,614 95,588 Q91,562 91,524 Q91,448 116,413.5 Q141,379 200,371 L353,350 Q429,341 460.5,300 Q492,259 492,169 Q492,121 482.5,87.5 Q473,54 457.5,34.5 Q442,15 413.5,5 Q385,-5 356.5,-8 Q328,-11 282,-11 Q172,-11 78,0 L81,19 Q185,11 283,12 Q338,13 369,18 Q400,23 424,39.5 Q448,56 457.5,87 Q467,118 467,169 Q467,250 441.5,284 Q416,318 353,326"/> 
            <glyph glyph-name="T" unicode="&#x54;" horiz-adv-x="537" d=" M537,668 L294,668 L294,0 L269,0 L269,668 L27,668 L27,690 L537,690"/> 
            <glyph glyph-name="U" unicode="&#x55;" horiz-adv-x="569" d=" M569,690 L569,255 Q569,110 515.5,49 Q462,-12 334,-12 Q205,-12 151.5,49 Q98,110 98,255 L98,690 L123,690 L123,255 Q123,121 170.5,66 Q218,11 334,11 Q449,11 496.5,66 Q544,121 544,255 L544,690"/> 
            <glyph glyph-name="V" unicode="&#x56;" horiz-adv-x="566" d=" M566,690 L330,9 Q326,0 317,0 L275,0 Q266,0 262,9 L26,690 L53,690 L257,96 Q269,63 282,22 L310,22 Q326,72 335,97 L539,690"/> 
            <glyph glyph-name="W" unicode="&#x57;" horiz-adv-x="897" d=" M897,690 L714,10 Q711,0 700,0 L658,0 Q647,0 644,11 L497,591 L477,668 L453,668 L433,591 L286,11 Q283,0 272,0 L230,0 Q219,0 216,10 L33,690 L59,690 L219,91 L237,22 L265,22 L282,90 L432,679 Q435,690 446,690 L484,690 Q495,690 498,679 L648,91 Q651,80 656.5,57 Q662,34 665,22 L693,22 L711,90 L871,690"/> 
            <glyph glyph-name="X" unicode="&#x58;" horiz-adv-x="555" d=" M312,350 L281,350 L68,0 L38,0 L257,360 L51,690 L81,690 L280,372 L313,372 L512,690 L542,690 L336,360 L555,0 L525,0"/> 
            <glyph glyph-name="Y" unicode="&#x59;" horiz-adv-x="518" d=" M283,257 L283,0 L258,0 L258,257 L22,690 L50,690 L230,357 Q256,309 268,289 L273,289 Q277,296 290.5,320 Q304,344 310,356 L490,690 L518,690"/> 
            <glyph glyph-name="Z" unicode="&#x5A;" horiz-adv-x="507" d=" M507,23 L507,0 L52,0 L52,23 L473,667 L55,667 L55,690 L502,690 L502,667 L81,23"/> 
            <glyph glyph-name="[" unicode="&#x5B;" horiz-adv-x="262" d=" M262,746 L142,746 Q130,746 130,734 L130,-131 Q130,-143 142,-143 L262,-143 L262,-165 L137,-165 Q124,-165 115,-156.5 Q106,-148 106,-134 L106,737 Q106,750 115,759 Q124,768 137,768 L262,768"/> 
            <glyph glyph-name="\" unicode="&#x5C;" horiz-adv-x="456" d=" M456,-59 L431,-59 L38,690 L63,690"/> 
            <glyph glyph-name="]" unicode="&#x5D;" horiz-adv-x="206" d=" M50,768 L175,768 Q188,768 197,759 Q206,750 206,737 L206,-134 Q206,-148 197,-156.5 Q188,-165 175,-165 L50,-165 L50,-143 L170,-143 Q182,-143 182,-131 L182,734 Q182,746 170,746 L50,746"/> 
            <glyph glyph-name="^" unicode="&#x5E;" horiz-adv-x="362" d=" M362,378 L350,366 L200,548 L192,548 L43,366 L30,378 L187,575 L205,575"/> 
            <glyph glyph-name="_" unicode="&#x5F;" horiz-adv-x="510" d=" M510,-22 L79,-22 L79,0 L510,0"/> 
            <glyph glyph-name="`" unicode="&#x60;" horiz-adv-x="217" d=" M217,563 L203,550 L50,691 L68,708"/> 
            <glyph glyph-name="a" unicode="&#x61;" horiz-adv-x="447" d=" M88,453 L85,471 Q234,492 314,492 Q447,492 447,358 L447,0 L429,0 L424,93 Q389,57 322,25.5 Q255,-6 191,-6 Q131,-6 98.5,25.5 Q66,57 66,115 L66,177 Q66,231 96,260.5 Q126,290 181,290 L423,290 L423,358 Q423,469 313,469 Q214,469 88,453 M91,177 L91,115 Q91,20 191,18 Q246,17 313,46.5 Q380,76 423,117 L423,270 L181,266 Q91,264 91,177"/> 
            <glyph glyph-name="b" unicode="&#x62;" horiz-adv-x="488" d=" M116,700 L116,483 Q116,413 113,390 Q228,492 314,492 Q408,492 448,434.5 Q488,377 488,240 Q488,104 443.5,46 Q399,-12 294,-12 Q208,-12 92,19 L92,700 M116,369 L116,36 Q207,11 294,11 Q385,11 424,63 Q463,115 463,240 Q463,365 429,417 Q395,469 314,469 Q269,469 224.5,445.5 Q180,422 116,369"/> 
            <glyph glyph-name="c" unicode="&#x63;" horiz-adv-x="434" d=" M430,23 L434,5 Q359,-12 289,-12 Q169,-12 119,45 Q69,102 69,240 Q69,378 118.5,435 Q168,492 288,492 Q368,492 423,475 L417,457 Q370,469 292,469 Q182,469 138,420 Q94,371 94,240 Q94,109 138,60 Q182,11 292,11 Q371,11 430,23"/> 
            <glyph glyph-name="d" unicode="&#x64;" horiz-adv-x="466" d=" M466,700 L466,0 L448,0 L444,84 Q336,-12 245,-12 Q151,-12 111,45.5 Q71,103 71,240 Q71,377 111,434.5 Q151,492 245,492 Q330,492 445,442 Q442,468 442,535 L442,700 M442,107 L442,421 Q322,469 245,469 Q164,469 130,417 Q96,365 96,240 Q96,115 130,63 Q164,11 245,11 Q291,11 335.5,33 Q380,55 442,107"/> 
            <glyph glyph-name="e" unicode="&#x65;" horiz-adv-x="466" d=" M361,227 L94,227 Q97,108 142,59.5 Q187,11 286,11 Q369,11 449,24 L453,6 Q395,-12 283,-12 Q169,-12 119,46.5 Q69,105 69,242 Q69,379 116,435.5 Q163,492 275,492 Q461,492 464,356 Q466,290 442,258.5 Q418,227 361,227 M94,249 L361,249 Q404,249 422.5,275 Q441,301 439,354 Q438,413 397.5,441 Q357,469 276,469 Q177,469 136,419.5 Q95,370 94,249"/> 
            <glyph glyph-name="f" unicode="&#x66;" horiz-adv-x="365" d=" M365,692 L255,692 Q195,692 170.5,667 Q146,642 146,581 L146,480 L324,480 L324,458 L146,458 L146,0 L122,0 L122,458 L35,458 L35,475 L122,480 L122,581 Q122,649 151,681.5 Q180,714 247,714 Q320,714 365,710"/> 
            <glyph glyph-name="g" unicode="&#x67;" horiz-adv-x="516" d=" M513,462 L410,459 Q459,423 459,343 Q459,267 414.5,231.5 Q370,196 269,196 Q191,196 146,217 Q123,192 116.5,165.5 Q110,139 128,117 Q146,95 188,87 L381,53 Q442,42 463.5,13.5 Q485,-15 485,-74 Q485,-150 437,-181 Q389,-212 274,-212 Q154,-212 105.5,-181 Q57,-150 57,-74 Q57,-20 70,10.5 Q83,41 122,62 L146,75 Q112,89 99.5,117 Q87,145 96,174.5 Q105,204 131,226 Q77,260 77,343 Q77,418 122.5,455 Q168,492 269,492 Q327,492 366,480 L516,480 M435,278 Q435,408 397,439 Q359,470 269,470 Q179,470 140,439 Q101,408 101,343 Q101,278 140,248 Q179,218 269,218 Q359,218 435,278 M172,68 L138,47 Q103,27 92,1.5 Q81,-24 81,-74 Q81,-138 124.5,-163.5 Q168,-189 274,-189 Q376,-189 418.5,-163 Q461,-137 461,-74 Q461,-24 443.5,-0.5 Q426,23 374,32 L175,67"/> 
            <glyph glyph-name="h" unicode="&#x68;" horiz-adv-x="478" d=" M120,700 L120,485 Q120,426 115,392 Q249,492 349,492 Q478,492 478,361 L478,0 L454,0 L454,358 Q454,469 344,469 Q293,469 242.5,446 Q192,423 118,371 L118,0 L94,0 L94,700"/> 
            <glyph glyph-name="i" unicode="&#x69;" horiz-adv-x="127" d=" M105,679 L115,679 Q127,679 127,667 L127,605 Q127,593 115,593 L105,593 Q93,593 93,605 L93,667 Q93,679 105,679 M122,0 L98,0 L98,480 L122,480"/> 
            <glyph glyph-name="j" unicode="&#x6A;" horiz-adv-x="127" d=" M105,679 L115,679 Q127,679 127,667 L127,605 Q127,593 115,593 L105,593 Q93,593 93,605 L93,667 Q93,679 105,679 M122,480 L122,-46 Q122,-136 56,-210 L43,-200 Q98,-127 98,-46 L98,480"/> 
            <glyph glyph-name="k" unicode="&#x6B;" horiz-adv-x="440" d=" M199,264 L116,264 Q118,233 118,177 L118,0 L94,0 L94,700 L120,700 L120,368 Q120,325 116,286 L199,286 L392,480 L424,480 L243,295 Q229,281 220,275 L220,273 Q237,256 243,248 L440,0 L409,0"/> 
            <glyph glyph-name="l" unicode="&#x6C;" horiz-adv-x="260" d=" M119,700 L119,96 Q119,57 140,36.5 Q161,16 199,16 L257,16 L260,0 Q240,-6 196,-6 Q150,-6 122.5,20.5 Q95,47 95,95 L95,700"/> 
            <glyph glyph-name="m" unicode="&#x6D;" horiz-adv-x="789" d=" M113,480 L116,392 Q230,492 330,492 Q437,492 452,393 Q565,492 665,492 Q725,492 757,458.5 Q789,425 789,361 L789,0 L765,0 L765,358 Q765,469 660,469 Q613,469 567.5,446 Q522,423 454,371 L454,361 L454,0 L430,0 L430,358 Q430,469 325,469 Q278,469 232.5,446 Q187,423 119,371 L119,0 L95,0 L95,480"/> 
            <glyph glyph-name="n" unicode="&#x6E;" horiz-adv-x="479" d=" M113,480 L116,392 Q242,492 350,492 Q479,492 479,361 L479,0 L455,0 L455,358 Q455,469 345,469 Q294,469 243.5,446 Q193,423 119,371 L119,0 L95,0 L95,480"/> 
            <glyph glyph-name="o" unicode="&#x6F;" horiz-adv-x="490" d=" M164,492 Q396,492 443,435.5 Q490,379 490,240 Q490,101 443,44.5 Q396,-12 280,-12 Q164,-12 117,44.5 Q70,101 70,240 Q70,379 164,492 M383,469 Q177,469 136,419 Q95,369 95,240 Q95,111 136,61 Q177,11 280,11 Q383,11 424,61 Q465,111 465,240 Q465,369 383,469"/> 
            <glyph glyph-name="p" unicode="&#x70;" horiz-adv-x="490" d=" M113,480 L117,393 Q223,492 316,492 Q410,492 450,434.5 Q490,377 490,240 Q490,103 450,45.5 Q410,-12 316,-12 Q227,-12 116,41 Q119,16 119,-51 L119,-210 L95,-210 L95,480 M119,372 L119,59 Q239,11 316,11 Q397,11 431,63 Q465,115 465,240 Q465,365 431,417 Q397,469 316,469 Q270,469 225,446.5 Q180,424 119,372"/> 
            <glyph glyph-name="q" unicode="&#x71;" horiz-adv-x="466" d=" M442,-210 L442,-10 Q442,60 445,83 Q383,34 335,11 Q287,-12 234,-12 Q148,-12 109,48.5 Q70,109 70,240 Q70,378 115,435 Q160,492 268,492 Q350,492 466,461 L466,-210 M442,104 L442,444 Q348,469 272,469 Q174,469 134.5,418.5 Q95,368 95,239 Q95,117 128.5,64 Q162,11 238,11 Q288,11 332,32.5 Q376,54 442,104"/> 
            <glyph glyph-name="r" unicode="&#x72;" horiz-adv-x="360" d=" M360,492 L355,469 L338,469 Q289,469 240.5,446 Q192,423 119,371 L119,0 L95,0 L95,480 L113,480 L116,392 Q243,492 341,492"/> 
            <glyph glyph-name="s" unicode="&#x73;" horiz-adv-x="437" d=" M328,221 L166,241 Q114,247 88,276 Q62,305 62,365 Q62,449 101,471.5 Q140,494 239,492 Q338,490 425,480 L422,462 Q326,469 239,470 Q201,471 181,470 Q161,469 139.5,464 Q118,459 108.5,447.5 Q99,436 92.5,416 Q86,396 86,365 Q86,314 106,291.5 Q126,269 166,264 L328,244 Q437,230 437,122 Q437,77 425.5,50 Q414,23 387,10 Q360,-3 330,-7 Q300,-11 248,-11 Q154,-11 74,0 L77,18 Q164,10 249,11 Q345,13 379,33 Q413,53 413,122 Q413,210 328,221"/> 
            <glyph glyph-name="t" unicode="&#x74;" horiz-adv-x="323" d=" M145,458 L145,96 Q145,16 225,16 L313,16 L316,0 Q276,-6 231,-6 Q121,-6 121,95 L121,458 L34,458 L34,475 L121,480 L121,631 L145,631 L145,480 L323,480 L323,458"/> 
            <glyph glyph-name="u" unicode="&#x75;" horiz-adv-x="465" d=" M465,480 L465,0 L447,0 L444,88 Q324,-12 220,-12 Q91,-12 91,119 L91,480 L115,480 L115,122 Q115,11 225,11 Q274,11 322,34 Q370,57 441,109 L441,480"/> 
            <glyph glyph-name="v" unicode="&#x76;" horiz-adv-x="477" d=" M477,480 L280,8 Q275,0 267,0 L240,0 Q232,0 227,8 L30,480 L56,480 L209,113 Q215,98 227.5,67.5 Q240,37 247,22 L260,22 L299,114 L451,480"/> 
            <glyph glyph-name="w" unicode="&#x77;" horiz-adv-x="778" d=" M778,480 L611,9 Q608,0 598,0 L572,0 Q563,0 559,9 L434,386 Q430,398 422.5,422 Q415,446 411,458 L401,458 L377,386 L253,9 Q249,0 240,0 L214,0 Q204,0 201,9 L34,480 L60,480 L198,86 Q202,75 209,53.5 Q216,32 220,22 L234,22 L255,87 L381,471 Q385,480 394,480 L418,480 Q427,480 431,471 L557,87 L578,22 L592,22 Q596,33 603,54.5 Q610,76 614,87 L752,480"/> 
            <glyph glyph-name="x" unicode="&#x78;" horiz-adv-x="469" d=" M264,240 L241,240 L66,0 L36,0 L218,250 L49,480 L79,480 L239,262 L266,262 L426,480 L456,480 L287,250 L469,0 L439,0"/> 
            <glyph glyph-name="y" unicode="&#x79;" horiz-adv-x="477" d=" M477,480 L256,-47 Q227,-115 193.5,-154 Q160,-193 101,-210 L95,-196 Q150,-175 181,-136.5 Q212,-98 235,-38 L250,0 L240,0 Q232,0 227,8 L30,480 L56,480 L225,74 L247,22 L260,22 L282,76 L451,480"/> 
            <glyph glyph-name="z" unicode="&#x7A;" horiz-adv-x="446" d=" M446,22 L446,0 L53,0 L53,22 L412,458 L56,458 L56,480 L443,480 L443,458 L84,22"/> 
            <glyph glyph-name="{" unicode="&#x7B;" horiz-adv-x="252" d=" M248,768 L248,750 Q190,750 167.5,724 Q145,698 145,642 L145,437 Q145,378 130.5,358.5 Q116,339 69,328 Q118,311 133.5,292.5 Q149,274 149,223 L149,-39 Q149,-94 171.5,-120.5 Q194,-147 252,-147 L252,-165 Q183,-165 154,-135.5 Q125,-106 125,-39 L125,233 Q125,254 122,266.5 Q119,279 107.5,288 Q96,297 88.5,300.5 Q81,304 56,313 L56,343 Q79,350 84,351.5 Q89,353 101,359.5 Q113,366 114.5,373.5 Q116,381 118.5,393.5 Q121,406 121,427 L121,642 Q121,709 150,738.5 Q179,768 248,768"/> 
            <glyph glyph-name="|" unicode="&#x7C;" horiz-adv-x="128" d=" M128,-169 L106,-169 L106,781 L128,781"/> 
            <glyph glyph-name="}" unicode="&#x7D;" horiz-adv-x="242" d=" M50,750 L50,768 Q119,768 148,738.5 Q177,709 177,642 L177,427 Q177,379 187.5,367.5 Q198,356 242,343 L242,313 Q217,304 209.5,300.5 Q202,297 190.5,288 Q179,279 176,266.5 Q173,254 173,233 L173,-39 Q173,-106 144,-135.5 Q115,-165 46,-165 L46,-147 Q104,-147 126.5,-120.5 Q149,-94 149,-39 L149,223 Q149,274 164.5,292.5 Q180,311 229,328 Q182,339 167.5,358.5 Q153,378 153,437 L153,642 Q153,698 130.5,724 Q108,750 50,750"/> 
            <glyph glyph-name="~" unicode="&#x7E;" horiz-adv-x="448" d=" M104,241 L87,241 Q86,286 106,309.5 Q126,333 162,330 Q205,327 267,295.5 Q329,264 372,262 Q403,260 416.5,275 Q430,290 430,325 L447,325 Q448,282 428,259.5 Q408,237 372,240 Q318,243 258,274.5 Q198,306 162,308 Q132,311 118,294.5 Q104,278 104,241"/> 
            <glyph glyph-name="¡" unicode="&#xA1;" horiz-adv-x="134" d=" M112,480 L122,480 Q134,480 134,468 L134,406 Q134,394 122,394 L112,394 Q100,394 100,406 L100,468 Q100,480 112,480 M129,126 L129,-205 L104,-205 L104,126 L106,277 L127,277"/> 
            <glyph glyph-name="¢" unicode="&#xA2;" horiz-adv-x="434" d=" M430,133 L434,115 Q359,98 289,98 L270,98 L263,0 L242,0 L249,100 Q152,108 110.5,165.5 Q69,223 69,350 Q69,487 118,544 Q167,601 284,602 L290,690 L311,690 L305,602 Q374,600 423,585 L417,567 Q379,577 303,579 L272,121 L292,121 Q371,121 430,133 M251,123 L282,579 Q178,577 136,527.5 Q94,478 94,350 Q94,232 129.5,181.5 Q165,131 251,123"/> 
            <glyph glyph-name="£" unicode="&#xA3;" horiz-adv-x="501" d=" M501,22 L501,0 L72,0 L72,22 Q122,54 139.5,107.5 Q157,161 153,243 L148,353 L65,353 L65,373 L147,373 L140,527 Q137,584 149,620.5 Q161,657 188,673.5 Q215,690 244,695.5 Q273,701 320,701 Q387,701 476,691 L473,673 Q399,679 297,679 Q220,679 190.5,644.5 Q161,610 164,530 L171,373 L422,373 L420,353 L172,353 L177,243 Q180,161 166,107 Q152,53 104,22 L164,22"/> 
            <glyph glyph-name="¤" unicode="&#xA4;" horiz-adv-x="518" d=" M503,135 L427,211 Q375,162 300,162 Q226,162 172,210 L98,135 L83,149 L158,224 Q109,280 109,352 Q109,426 158,480 L84,554 L98,569 L172,495 Q226,543 300,543 Q372,543 428,494 L503,569 L517,554 L442,480 Q490,426 490,352 Q490,279 441,225 L518,149 M300,182 Q370,181 419.5,231 Q469,281 469,352 Q469,423 419.5,473 Q370,523 300,523 Q230,523 180,473 Q130,423 130,352 Q130,281 180,231 Q230,181 300,182"/> 
            <glyph glyph-name="¥" unicode="&#xA5;" horiz-adv-x="548" d=" M324,306 L511,306 L511,286 L313,286 L313,196 L511,196 L511,176 L313,176 L313,0 L288,0 L288,176 L95,176 L95,196 L288,196 L288,286 L95,286 L95,306 L277,306 L52,690 L80,690 L257,387 L298,318 L303,318 Q338,377 343,386 L520,690 L548,690"/> 
            <glyph glyph-name="¦" unicode="&#xA6;" horiz-adv-x="129" d=" M129,381 L107,381 L107,781 L129,781 M129,-169 L107,-169 L107,231 L129,231"/> 
            <glyph glyph-name="§" unicode="&#xA7;" horiz-adv-x="469" d=" M370,335 L178,445 Q120,478 97,511.5 Q74,545 74,593 Q74,660 116.5,681.5 Q159,703 251,702 Q374,700 467,690 L464,672 Q347,679 251,680 Q219,680 200.5,679.5 Q182,679 160,674.5 Q138,670 126.5,661 Q115,652 107,635 Q99,618 99,593 Q99,517 178,472 L370,363 Q431,328 448.5,277.5 Q466,227 457,142 L435,142 Q452,288 370,335 M86,416 L108,416 Q99,343 113.5,297.5 Q128,252 173,226 L366,117 Q422,85 445.5,51 Q469,17 469,-32 Q469,-64 459,-86 Q449,-108 435.5,-119.5 Q422,-131 396,-136.5 Q370,-142 349,-143 Q328,-144 292,-144 Q194,-143 76,-132 L79,-114 Q213,-121 292,-122 Q325,-122 341.5,-121.5 Q358,-121 381.5,-117 Q405,-113 416,-103.5 Q427,-94 435.5,-76.5 Q444,-59 444,-32 Q444,46 365,90 L174,198 Q113,232 95,282 Q77,332 86,416"/> 
            <glyph glyph-name="¨" unicode="&#xA8;" horiz-adv-x="303" d=" M106,673 L116,673 Q126,673 126,662 L126,606 Q126,595 116,595 L106,595 Q96,595 96,606 L96,662 Q96,673 106,673 M283,673 L293,673 Q303,673 303,662 L303,606 Q303,595 293,595 L283,595 Q273,595 273,606 L273,662 Q273,673 283,673"/> 
            <glyph glyph-name="©" unicode="&#xA9;" horiz-adv-x="786" d=" M279,702 Q579,702 682.5,600.5 Q786,499 786,345 Q786,191 682.5,89.5 Q579,-12 429,-12 Q279,-12 175.5,89.5 Q72,191 72,345 Q72,499 279,702 M569,681 Q289,681 191,585 Q93,489 93,345 Q93,201 191,105 Q289,9 429,9 Q569,9 667,105 Q765,201 765,345 Q765,489 569,681 M574,144 L578,128 Q518,116 434,116 Q326,116 282.5,168 Q239,220 239,348 Q239,476 282.5,528 Q326,580 434,580 Q515,580 567,568 L562,553 Q510,559 434,559 Q338,559 299.5,512.5 Q261,466 261,348 Q261,230 299.5,183 Q338,136 434,136 Q521,136 574,144"/> 
            <glyph glyph-name="ª" unicode="&#xAA;" horiz-adv-x="355" d=" M96,570 L93,586 Q200,600 258,600 Q355,600 355,508 L355,270 L338,270 L334,333 Q308,308 261.5,287 Q215,266 169,266 Q126,266 102.5,287 Q79,308 79,348 L79,389 Q79,425 101,445 Q123,465 163,465 L333,465 L333,508 Q333,580 256,580 Q179,580 96,570 M102,389 L102,349 Q102,288 172,286 Q211,285 257,304 Q303,323 333,350 L333,449 L165,446 Q102,444 102,389"/> 
            <glyph glyph-name="«" unicode="&#xAB;" horiz-adv-x="385" d=" M226,444 L78,251 L227,56 L215,46 L51,247 L51,255 L214,454 M384,444 L236,251 L385,56 L373,46 L209,247 L209,255 L372,454"/> 
            <glyph glyph-name="¬" unicode="&#xAC;" horiz-adv-x="503" d=" M503,307 L503,129 L480,129 L480,285 L86,285 L86,307"/> 
            <glyph glyph-name="­" unicode="&#xAD;" horiz-adv-x="397" d=" M397,240 L86,240 L86,262 L397,262"/> 
            <glyph glyph-name="®" unicode="&#xAE;" horiz-adv-x="513" d=" M291,701 Q383,701 448,636 Q513,571 513,479 Q513,386 448,321 Q383,256 291,256 Q198,256 133,321 Q68,386 68,479 Q68,571 133,636 Q198,701 291,701 M291,272 Q375,272 435,332.5 Q495,393 495,479 Q495,564 435,624.5 Q375,685 291,685 Q206,685 146,624.5 Q86,564 86,479 Q86,393 146,332.5 Q206,272 291,272 M340,467 L340,465 Q366,460 379,426 L416,336 L396,336 L360,424 Q345,461 306,461 Q280,461 247,461.5 Q214,462 208,462 L208,336 L190,336 L190,619 Q226,622 302,622 Q359,622 381.5,605 Q404,588 404,542 Q404,506 389,489 Q374,472 340,467 M208,475 L302,475 Q349,476 367.5,490 Q386,504 386,541 Q386,580 367.5,593 Q349,606 302,606 Q227,606 208,605"/> 
            <glyph glyph-name="¯" unicode="&#xAF;" horiz-adv-x="330" d=" M330,625 L70,625 L70,648 L330,648"/> 
            <glyph glyph-name="°" unicode="&#xB0;" horiz-adv-x="315" d=" M192,702 Q242,702 278.5,665.5 Q315,629 315,579 Q315,528 278.5,491.5 Q242,455 192,455 Q141,455 104.5,491.5 Q68,528 68,579 Q68,629 104.5,665.5 Q141,702 192,702 M235,682 Q149,682 118.5,652 Q88,622 88,579 Q88,537 118.5,506 Q149,475 192,475 Q234,475 264.5,506 Q295,537 295,579 Q295,622 235,682"/> 
            <glyph glyph-name="±" unicode="&#xB1;" horiz-adv-x="508" d=" M508,358 L508,336 L310,336 L310,189 L289,189 L289,336 L91,336 L91,358 L288,358 L288,505 L311,505 L311,358 M91,116 L508,116 L508,94 L91,94"/> 
            <glyph glyph-name="²" unicode="&#xB2;" horiz-adv-x="366" d=" M81,749 L77,765 Q150,781 210,781 Q281,781 313,764.5 Q345,748 345,697 Q345,657 324,621.5 Q303,586 253,535 L100,379 L140,380 Q180,380 180,379 L366,379 L366,360 L73,360 L73,372 Q73,377 77,383 L235,544 Q282,594 302.5,629.5 Q323,665 322,700 Q321,727 305.5,741 Q290,755 269.5,758.5 Q249,762 212,762 Q148,762 81,749"/> 
            <glyph glyph-name="³" unicode="&#xB3;" horiz-adv-x="353" d=" M84,755 L80,771 Q140,781 199,781 Q278,781 309,760.5 Q340,740 340,686 Q340,594 265,581 L265,579 Q349,567 351,475 Q353,412 320.5,382.5 Q288,353 211,353 Q161,353 73,363 L77,379 Q145,372 209,372 Q273,372 301,396 Q329,420 329,476 Q329,519 305,544.5 Q281,570 217,571 L131,571 L131,586 L217,588 Q250,589 272,598 Q294,607 303.5,622.5 Q313,638 316,652 Q319,666 319,683 Q318,729 292.5,745.5 Q267,762 199,762 Q138,762 84,755"/> 
            <glyph glyph-name="´" unicode="&#xB4;" horiz-adv-x="227" d=" M227,691 L74,550 L60,563 L209,708"/> 
            <glyph glyph-name="¶" unicode="&#xB6;" horiz-adv-x="488" d=" M286,-210 L286,201 Q162,212 108,270 Q54,328 54,450 Q54,588 122.5,645 Q191,702 353,702 Q433,702 488,685 L488,0 L463,0 L463,670 Q393,679 311,679 L311,-210"/> 
            <glyph glyph-name="·" unicode="&#xB7;" horiz-adv-x="120" d=" M98,300 L108,300 Q120,300 120,288 L120,226 Q120,214 108,214 L98,214 Q86,214 86,226 L86,288 Q86,300 98,300"/> 
            <glyph glyph-name="¸" unicode="&#xB8;" horiz-adv-x="182" d=" M100,-63 L103,-49 Q142,-47 162,-63 Q182,-79 181,-114 Q180,-166 142,-196.5 Q104,-227 42,-219 L46,-204 Q97,-206 128,-179.5 Q159,-153 159,-114 Q159,-86 146,-75 Q133,-64 100,-63"/> 
            <glyph glyph-name="¹" unicode="&#xB9;" horiz-adv-x="195" d=" M195,360 L174,360 L174,723 Q174,743 176,753 L52,716 L48,730 L174,774 L195,774"/> 
            <glyph glyph-name="º" unicode="&#xBA;" horiz-adv-x="374" d=" M224,600 Q307,600 340.5,562 Q374,524 374,431 Q374,338 340.5,300 Q307,262 224,262 Q142,262 108.5,300 Q75,338 75,431 Q75,524 108.5,562 Q142,600 224,600 M294,581 Q154,581 126,548.5 Q98,516 98,431 Q98,347 126,314.5 Q154,282 224,282 Q294,282 322,314.5 Q350,347 350,431 Q350,516 294,581"/> 
            <glyph glyph-name="»" unicode="&#xBB;" horiz-adv-x="401" d=" M243,255 L243,247 L79,46 L67,56 L216,251 L68,444 L80,454 M401,255 L401,247 L237,46 L225,56 L374,251 L226,444 L238,454"/> 
            <glyph glyph-name="¼" unicode="&#xBC;" horiz-adv-x="788" d=" M180,276 L180,639 Q180,659 182,669 L58,632 L54,646 L180,690 L201,690 L201,276 M630,690 L150,0 L126,0 L606,690 M788,118 L743,116 L743,0 L722,0 L722,115 L494,115 Q473,115 462.5,130.5 Q452,146 462,163 L610,414 L633,414 L484,162 Q478,151 484.5,142 Q491,133 504,133 L722,133 L722,266 L727,336 L743,336 L743,133 L788,133"/> 
            <glyph glyph-name="½" unicode="&#xBD;" horiz-adv-x="812" d=" M201,276 L180,276 L180,639 Q180,659 182,669 L58,632 L54,646 L180,690 L201,690 M150,0 L126,0 L606,690 L630,690 M527,389 L523,405 Q596,421 656,421 Q727,421 759,404.5 Q791,388 791,337 Q791,297 770,261.5 Q749,226 699,175 L546,19 L626,19 L812,19 L812,0 L519,0 L519,12 Q519,17 523,23 L681,184 Q728,234 748.5,269.5 Q769,305 768,340 Q767,367 751.5,381 Q736,395 715.5,398.5 Q695,402 658,402 Q594,402 527,389"/> 
            <glyph glyph-name="¾" unicode="&#xBE;" horiz-adv-x="877" d=" M260,495 L260,493 Q344,481 346,389 Q348,326 315.5,296.5 Q283,267 206,267 Q156,267 68,277 L72,293 Q140,286 204,286 Q268,286 296,310 Q324,334 324,390 Q324,433 300,458.5 Q276,484 212,485 L126,485 L126,500 L212,502 Q245,503 267,512 Q289,521 298.5,536.5 Q308,552 311,566 Q314,580 314,597 Q313,643 287.5,659.5 Q262,676 194,676 Q133,676 79,669 L75,685 Q135,695 194,695 Q273,695 304,674.5 Q335,654 335,600 Q335,508 260,495 M734,690 L254,0 L230,0 L710,690 M877,118 L822,115 L822,0 L801,0 L801,115 L583,115 Q562,115 551.5,130.5 Q541,146 551,163 L699,414 L722,414 L573,162 Q567,151 573.5,142 Q580,133 593,133 L801,133 L801,266 L806,336 L822,336 L822,133 L877,133"/> 
            <glyph glyph-name="¿" unicode="&#xBF;" horiz-adv-x="455" d=" M254,490 L264,490 Q276,490 276,478 L276,416 Q276,404 264,404 L254,404 Q242,404 242,416 L242,478 Q242,490 254,490 M246,287 L270,287 Q270,233 250.5,190 Q231,147 203,118.5 Q175,90 147.5,64 Q120,38 100.5,5 Q81,-28 81,-67 Q81,-135 122.5,-167.5 Q164,-200 252,-200 Q346,-200 450,-186 L455,-204 Q446,-205 426,-208.5 Q406,-212 397.5,-213 Q389,-214 371,-216.5 Q353,-219 338.5,-220 Q324,-221 301.5,-221.5 Q279,-222 252,-222 Q56,-222 56,-67 Q56,-25 75.5,10.5 Q95,46 123,73.5 Q151,101 179,129 Q207,157 226.5,197.5 Q246,238 246,287"/> 
            <glyph glyph-name="À" unicode="&#xC0;" horiz-adv-x="584" d=" M327,736 L174,877 L192,894 L341,749 M466,252 L137,252 L46,0 L19,0 L267,681 Q270,690 280,690 L323,690 Q333,690 336,681 L584,0 L557,0 M458,274 L336,612 L316,668 L287,668 L267,612 L145,274"/> 
            <glyph glyph-name="Á" unicode="&#xC1;" horiz-adv-x="584" d=" M268,736 L254,749 L403,894 L421,877 M466,252 L137,252 L46,0 L19,0 L267,681 Q270,690 280,690 L323,690 Q333,690 336,681 L584,0 L557,0 M458,274 L336,612 L316,668 L287,668 L267,612 L145,274"/> 
            <glyph glyph-name="Â" unicode="&#xC2;" horiz-adv-x="584" d=" M168,751 L156,763 L292,880 L310,880 L446,763 L435,751 L305,853 L297,853 M466,252 L137,252 L46,0 L19,0 L267,681 Q270,690 280,690 L323,690 Q333,690 336,681 L584,0 L557,0 M458,274 L336,612 L316,668 L287,668 L267,612 L145,274"/> 
            <glyph glyph-name="Ã" unicode="&#xC3;" horiz-adv-x="584" d=" M174,777 L157,777 Q156,822 176,845.5 Q196,869 232,866 Q257,864 279.5,848 Q302,832 324.5,816 Q347,800 372,798 Q403,796 416.5,811 Q430,826 430,861 L447,861 Q448,818 428,795.5 Q408,773 372,776 Q336,779 295.5,810.5 Q255,842 232,844 Q202,847 188,830.5 Q174,814 174,777 M466,252 L137,252 L46,0 L19,0 L267,681 Q270,690 280,690 L323,690 Q333,690 336,681 L584,0 L557,0 M458,274 L336,612 L316,668 L287,668 L267,612 L145,274"/> 
            <glyph glyph-name="Ä" unicode="&#xC4;" horiz-adv-x="584" d=" M218,778 L208,778 Q198,778 198,789 L198,845 Q198,856 208,856 L218,856 Q228,856 228,845 L228,789 Q228,778 218,778 M395,778 L385,778 Q375,778 375,789 L375,845 Q375,856 385,856 L395,856 Q405,856 405,845 L405,789 Q405,778 395,778 M466,252 L137,252 L46,0 L19,0 L267,681 Q270,690 280,690 L323,690 Q333,690 336,681 L584,0 L557,0 M458,274 L336,612 L316,668 L287,668 L267,612 L145,274"/> 
            <glyph glyph-name="Å" unicode="&#xC5;" horiz-adv-x="584" d=" M342,719 Q262,719 234,746.5 Q206,774 206,814 Q206,853 234,881 Q262,909 302,909 Q342,909 370,881 Q398,853 398,814 Q398,774 342,719 M334,890 Q270,890 248.5,868 Q227,846 227,814 Q227,781 248.5,759.5 Q270,738 302,738 Q334,738 355.5,759.5 Q377,781 377,814 Q377,846 334,890 M466,252 L137,252 L46,0 L19,0 L267,681 Q270,690 280,690 L323,690 Q333,690 336,681 L584,0 L557,0 M458,274 L336,612 L316,668 L287,668 L267,612 L145,274"/> 
            <glyph glyph-name="Æ" unicode="&#xC6;" horiz-adv-x="847" d=" M847,668 L578,668 Q540,668 518,646 Q496,624 496,586 L496,380 L804,380 L804,359 L496,359 L496,104 Q496,68 519,45 Q542,22 578,22 L847,22 L847,4 Q755,0 573,0 Q529,0 500,29 Q471,58 471,102 L471,272 L220,272 L41,0 L11,0 L410,605 Q444,656 482,673 Q520,690 575,690 Q750,690 847,686 M471,294 L471,587 Q471,610 483.5,633.5 Q496,657 512,664 L506,664 Q466,648 430,592 L234,294"/> 
            <glyph glyph-name="Ç" unicode="&#xC7;" horiz-adv-x="519" d=" M513,24 L519,6 Q440,-12 331,-12 Q189,-12 132.5,67.5 Q76,147 76,345 Q76,543 132.5,622.5 Q189,702 331,702 Q431,702 505,685 L499,667 Q424,679 331,679 Q203,679 152.5,605 Q102,531 102,345 Q102,159 152.5,85 Q203,11 331,11 Q438,11 513,24 M299,-75 L302,-61 Q341,-59 361,-75 Q381,-91 380,-126 Q379,-178 341,-208.5 Q303,-239 241,-231 L245,-216 Q296,-218 327,-191.5 Q358,-165 358,-126 Q358,-98 345,-87 Q332,-76 299,-75"/> 
            <glyph glyph-name="È" unicode="&#xC8;" horiz-adv-x="493" d=" M335,761 L182,902 L200,919 L349,774 M491,22 L493,4 Q395,0 199,0 Q155,0 126,29 Q97,58 97,102 L97,588 Q97,632 126,661 Q155,690 199,690 Q395,690 493,686 L491,668 L204,668 Q168,668 145,645 Q122,622 122,586 L122,380 L450,380 L450,359 L122,359 L122,104 Q122,68 145,45 Q168,22 204,22"/> 
            <glyph glyph-name="É" unicode="&#xC9;" horiz-adv-x="493" d=" M276,761 L262,774 L411,919 L429,902 M491,22 L493,4 Q395,0 199,0 Q155,0 126,29 Q97,58 97,102 L97,588 Q97,632 126,661 Q155,690 199,690 Q395,690 493,686 L491,668 L204,668 Q168,668 145,645 Q122,622 122,586 L122,380 L450,380 L450,359 L122,359 L122,104 Q122,68 145,45 Q168,22 204,22"/> 
            <glyph glyph-name="Ê" unicode="&#xCA;" horiz-adv-x="493" d=" M176,776 L164,788 L300,905 L318,905 L454,788 L443,776 L313,878 L305,878 M491,22 L493,4 Q395,0 199,0 Q155,0 126,29 Q97,58 97,102 L97,588 Q97,632 126,661 Q155,690 199,690 Q395,690 493,686 L491,668 L204,668 Q168,668 145,645 Q122,622 122,586 L122,380 L450,380 L450,359 L122,359 L122,104 Q122,68 145,45 Q168,22 204,22"/> 
            <glyph glyph-name="Ë" unicode="&#xCB;" horiz-adv-x="493" d=" M226,803 L216,803 Q206,803 206,814 L206,870 Q206,881 216,881 L226,881 Q236,881 236,870 L236,814 Q236,803 226,803 M403,803 L393,803 Q383,803 383,814 L383,870 Q383,881 393,881 L403,881 Q413,881 413,870 L413,814 Q413,803 403,803 M491,22 L493,4 Q395,0 199,0 Q155,0 126,29 Q97,58 97,102 L97,588 Q97,632 126,661 Q155,690 199,690 Q395,690 493,686 L491,668 L204,668 Q168,668 145,645 Q122,622 122,586 L122,380 L450,380 L450,359 L122,359 L122,104 Q122,68 145,45 Q168,22 204,22"/> 
            <glyph glyph-name="Ì" unicode="&#xCC;" horiz-adv-x="154" d=" M154,749 L140,736 L-13,877 L5,894 M128,0 L103,0 L103,690 L128,690"/> 
            <glyph glyph-name="Í" unicode="&#xCD;" horiz-adv-x="234" d=" M234,877 L81,736 L67,749 L216,894 M128,0 L103,0 L103,690 L128,690"/> 
            <glyph glyph-name="Î" unicode="&#xCE;" horiz-adv-x="259" d=" M259,763 L248,751 L118,853 L110,853 L-19,751 L-31,763 L105,880 L123,880 M128,0 L103,0 L103,690 L128,690"/> 
            <glyph glyph-name="Ï" unicode="&#xCF;" horiz-adv-x="218" d=" M21,856 L31,856 Q41,856 41,845 L41,789 Q41,778 31,778 L21,778 Q11,778 11,789 L11,845 Q11,856 21,856 M198,856 L208,856 Q218,856 218,845 L218,789 Q218,778 208,778 L198,778 Q188,778 188,789 L188,845 Q188,856 198,856 M128,0 L103,0 L103,690 L128,690"/> 
            <glyph glyph-name="Ð" unicode="&#xD0;" horiz-adv-x="586" d=" M106,381 L106,690 Q225,699 335,699 Q474,699 530,619.5 Q586,540 586,345 Q586,150 530,70.5 Q474,-9 335,-9 Q227,-9 106,0 L106,361 L26,361 L26,381 M131,361 L131,17 Q311,14 335,14 Q460,14 510,87.5 Q560,161 560,345 Q560,529 510,602.5 Q460,676 335,676 Q253,676 131,672 L131,381 L314,381 L314,361"/> 
            <glyph glyph-name="Ñ" unicode="&#xD1;" horiz-adv-x="585" d=" M230,777 L213,777 Q212,822 232,845.5 Q252,869 288,866 Q318,864 358,832.5 Q398,801 428,798 Q459,796 472.5,811 Q486,826 486,861 L503,861 Q504,818 484,795.5 Q464,773 428,776 Q392,779 351.5,810.5 Q311,842 288,844 Q258,847 244,830.5 Q230,814 230,777 M585,690 L585,15 Q585,0 570,0 L528,0 Q516,0 510,11 L190,600 Q184,611 171.5,634 Q159,657 153,668 L128,668 L128,599 L128,0 L103,0 L103,675 Q103,690 118,690 L157,690 Q170,690 175,679 L488,103 L532,22 L560,22 L560,112 L560,690"/> 
            <glyph glyph-name="Ò" unicode="&#xD2;" horiz-adv-x="586" d=" M371,749 L357,736 L204,877 L222,894 M189,702 Q473,702 529.5,622.5 Q586,543 586,345 Q586,147 529.5,67.5 Q473,-12 331,-12 Q189,-12 132.5,67.5 Q76,147 76,345 Q76,543 189,702 M459,679 Q203,679 152.5,605 Q102,531 102,345 Q102,159 152.5,85 Q203,11 331,11 Q459,11 509.5,85 Q560,159 560,345 Q560,531 459,679"/> 
            <glyph glyph-name="Ó" unicode="&#xD3;" horiz-adv-x="586" d=" M451,877 L298,736 L284,749 L433,894 M189,702 Q473,702 529.5,622.5 Q586,543 586,345 Q586,147 529.5,67.5 Q473,-12 331,-12 Q189,-12 132.5,67.5 Q76,147 76,345 Q76,543 189,702 M459,679 Q203,679 152.5,605 Q102,531 102,345 Q102,159 152.5,85 Q203,11 331,11 Q459,11 509.5,85 Q560,159 560,345 Q560,531 459,679"/> 
            <glyph glyph-name="Ô" unicode="&#xD4;" horiz-adv-x="586" d=" M476,763 L465,751 L335,853 L327,853 L198,751 L186,763 L322,880 L340,880 M189,702 Q473,702 529.5,622.5 Q586,543 586,345 Q586,147 529.5,67.5 Q473,-12 331,-12 Q189,-12 132.5,67.5 Q76,147 76,345 Q76,543 189,702 M459,679 Q203,679 152.5,605 Q102,531 102,345 Q102,159 152.5,85 Q203,11 331,11 Q459,11 509.5,85 Q560,159 560,345 Q560,531 459,679"/> 
            <glyph glyph-name="Õ" unicode="&#xD5;" horiz-adv-x="586" d=" M204,777 L187,777 Q186,822 206,845.5 Q226,869 262,866 Q291,864 332,832.5 Q373,801 402,798 Q433,796 446.5,811 Q460,826 460,861 L477,861 Q478,818 458,795.5 Q438,773 402,776 Q366,779 325.5,810.5 Q285,842 262,844 Q232,847 218,830.5 Q204,814 204,777 M189,702 Q473,702 529.5,622.5 Q586,543 586,345 Q586,147 529.5,67.5 Q473,-12 331,-12 Q189,-12 132.5,67.5 Q76,147 76,345 Q76,543 189,702 M459,679 Q203,679 152.5,605 Q102,531 102,345 Q102,159 152.5,85 Q203,11 331,11 Q459,11 509.5,85 Q560,159 560,345 Q560,531 459,679"/> 
            <glyph glyph-name="Ö" unicode="&#xD6;" horiz-adv-x="586" d=" M238,856 L248,856 Q258,856 258,845 L258,789 Q258,778 248,778 L238,778 Q228,778 228,789 L228,845 Q228,856 238,856 M415,856 L425,856 Q435,856 435,845 L435,789 Q435,778 425,778 L415,778 Q405,778 405,789 L405,845 Q405,856 415,856 M189,702 Q473,702 529.5,622.5 Q586,543 586,345 Q586,147 529.5,67.5 Q473,-12 331,-12 Q189,-12 132.5,67.5 Q76,147 76,345 Q76,543 189,702 M459,679 Q203,679 152.5,605 Q102,531 102,345 Q102,159 152.5,85 Q203,11 331,11 Q459,11 509.5,85 Q560,159 560,345 Q560,531 459,679"/> 
            <glyph glyph-name="×" unicode="&#xD7;" horiz-adv-x="429" d=" M65,139 L79,122 L429,437 L415,453"/> 
            <glyph glyph-name="Ø" unicode="&#xD8;" horiz-adv-x="586" d=" M516,731 L485,665 Q539,630 562.5,553 Q586,476 586,345 Q586,147 529.5,67.5 Q473,-12 331,-12 Q236,-12 183,21 L149,-51 L128,-41 L163,35 Q76,107 76,345 Q76,543 132.5,622.5 Q189,702 331,702 Q414,702 465,677 L495,741 M175,59 L454,654 Q407,679 331,679 Q203,679 152.5,605 Q102,531 102,345 Q102,128 175,59 M474,642 L194,44 Q243,11 331,11 Q459,11 509.5,85 Q560,159 560,345 Q560,465 540,536.5 Q520,608 474,642"/> 
            <glyph glyph-name="Ù" unicode="&#xD9;" horiz-adv-x="569" d=" M374,749 L360,736 L207,877 L225,894 M569,690 L569,255 Q569,110 515.5,49 Q462,-12 334,-12 Q205,-12 151.5,49 Q98,110 98,255 L98,690 L123,690 L123,255 Q123,121 170.5,66 Q218,11 334,11 Q449,11 496.5,66 Q544,121 544,255 L544,690"/> 
            <glyph glyph-name="Ú" unicode="&#xDA;" horiz-adv-x="569" d=" M454,877 L301,736 L287,749 L436,894 M569,690 L569,255 Q569,110 515.5,49 Q462,-12 334,-12 Q205,-12 151.5,49 Q98,110 98,255 L98,690 L123,690 L123,255 Q123,121 170.5,66 Q218,11 334,11 Q449,11 496.5,66 Q544,121 544,255 L544,690"/> 
            <glyph glyph-name="Û" unicode="&#xDB;" horiz-adv-x="569" d=" M479,763 L468,751 L338,853 L330,853 L201,751 L189,763 L325,880 L343,880 M569,690 L569,255 Q569,110 515.5,49 Q462,-12 334,-12 Q205,-12 151.5,49 Q98,110 98,255 L98,690 L123,690 L123,255 Q123,121 170.5,66 Q218,11 334,11 Q449,11 496.5,66 Q544,121 544,255 L544,690"/> 
            <glyph glyph-name="Ü" unicode="&#xDC;" horiz-adv-x="569" d=" M241,856 L251,856 Q261,856 261,845 L261,789 Q261,778 251,778 L241,778 Q231,778 231,789 L231,845 Q231,856 241,856 M418,856 L428,856 Q438,856 438,845 L438,789 Q438,778 428,778 L418,778 Q408,778 408,789 L408,845 Q408,856 418,856 M569,690 L569,255 Q569,110 515.5,49 Q462,-12 334,-12 Q205,-12 151.5,49 Q98,110 98,255 L98,690 L123,690 L123,255 Q123,121 170.5,66 Q218,11 334,11 Q449,11 496.5,66 Q544,121 544,255 L544,690"/> 
            <glyph glyph-name="Ý" unicode="&#xDD;" horiz-adv-x="518" d=" M237,736 L223,749 L372,894 L390,877 M283,257 L283,0 L258,0 L258,257 L22,690 L50,690 L230,357 Q256,309 268,289 L273,289 Q277,296 290.5,320 Q304,344 310,356 L490,690 L518,690"/> 
            <glyph glyph-name="Þ" unicode="&#xDE;" horiz-adv-x="523" d=" M128,690 L128,549 Q198,555 324,555 Q435,555 479,512 Q523,469 523,352 Q523,234 479.5,191.5 Q436,149 324,149 Q196,149 128,153 L128,0 L103,0 L103,690 M128,172 L324,172 Q422,174 459.5,210.5 Q497,247 497,352 Q497,457 459,494.5 Q421,532 324,532 Q196,532 128,530"/> 
            <glyph glyph-name="ß" unicode="&#xDF;" horiz-adv-x="600" d=" M370,284 L503,244 Q552,229 576,202.5 Q600,176 600,122 Q600,78 589,50 Q578,22 554.5,9.5 Q531,-3 506,-7 Q481,-11 441,-11 Q352,-11 276,0 L278,18 Q361,10 441,11 Q515,13 545,33 Q575,53 575,122 Q575,170 556,190 Q537,210 500,221 L368,261 Q324,274 302,297 Q280,320 280,365 Q280,384 282.5,398 Q285,412 294.5,423.5 Q304,435 309.5,441.5 Q315,448 334,456.5 Q353,465 360.5,468 Q368,471 395.5,480 Q423,489 433,492 Q480,508 497,530 Q514,552 514,601 Q514,651 467.5,670.5 Q421,690 329,690 Q224,690 185.5,658 Q147,626 147,531 L147,0 L123,0 L123,458 L36,458 L36,475 L123,480 L123,531 Q123,592 137.5,630 Q152,668 183.5,685 Q215,702 246,707 Q277,712 329,712 Q432,712 484,687.5 Q536,663 536,601 Q536,541 513,515 Q490,489 434,470 Q423,466 400,459 Q377,452 369.5,449.5 Q362,447 346.5,440.5 Q331,434 326.5,428.5 Q322,423 315,413.5 Q308,404 306,392.5 Q304,381 304,365 Q304,329 320.5,311.5 Q337,294 370,284"/> 
            <glyph glyph-name="à" unicode="&#xE0;" horiz-adv-x="447" d=" M292,554 L139,695 L157,712 L306,567 M88,453 L85,471 Q234,492 314,492 Q447,492 447,358 L447,0 L429,0 L424,93 Q389,57 322,25.5 Q255,-6 191,-6 Q131,-6 98.5,25.5 Q66,57 66,115 L66,177 Q66,231 96,260.5 Q126,290 181,290 L423,290 L423,358 Q423,469 313,469 Q214,469 88,453 M91,177 L91,115 Q91,20 191,18 Q246,17 313,46.5 Q380,76 423,117 L423,270 L181,266 Q91,264 91,177"/> 
            <glyph glyph-name="á" unicode="&#xE1;" horiz-adv-x="447" d=" M233,554 L219,567 L368,712 L386,695 M88,453 L85,471 Q234,492 314,492 Q447,492 447,358 L447,0 L429,0 L424,93 Q389,57 322,25.5 Q255,-6 191,-6 Q131,-6 98.5,25.5 Q66,57 66,115 L66,177 Q66,231 96,260.5 Q126,290 181,290 L423,290 L423,358 Q423,469 313,469 Q214,469 88,453 M91,177 L91,115 Q91,20 191,18 Q246,17 313,46.5 Q380,76 423,117 L423,270 L181,266 Q91,264 91,177"/> 
            <glyph glyph-name="â" unicode="&#xE2;" horiz-adv-x="447" d=" M133,569 L121,581 L257,698 L275,698 L411,581 L400,569 L270,671 L262,671 M88,453 L85,471 Q234,492 314,492 Q447,492 447,358 L447,0 L429,0 L424,93 Q389,57 322,25.5 Q255,-6 191,-6 Q131,-6 98.5,25.5 Q66,57 66,115 L66,177 Q66,231 96,260.5 Q126,290 181,290 L423,290 L423,358 Q423,469 313,469 Q214,469 88,453 M91,177 L91,115 Q91,20 191,18 Q246,17 313,46.5 Q380,76 423,117 L423,270 L181,266 Q91,264 91,177"/> 
            <glyph glyph-name="ã" unicode="&#xE3;" horiz-adv-x="447" d=" M139,595 L122,595 Q121,640 141,663.5 Q161,687 197,684 Q222,682 244.5,666 Q267,650 289.5,634 Q312,618 337,616 Q368,614 381.5,629 Q395,644 395,679 L412,679 Q413,636 393,613.5 Q373,591 337,594 Q301,597 260.5,628.5 Q220,660 197,662 Q167,665 153,648.5 Q139,632 139,595 M88,453 L85,471 Q234,492 314,492 Q447,492 447,358 L447,0 L429,0 L424,93 Q389,57 322,25.5 Q255,-6 191,-6 Q131,-6 98.5,25.5 Q66,57 66,115 L66,177 Q66,231 96,260.5 Q126,290 181,290 L423,290 L423,358 Q423,469 313,469 Q214,469 88,453 M91,177 L91,115 Q91,20 191,18 Q246,17 313,46.5 Q380,76 423,117 L423,270 L181,266 Q91,264 91,177"/> 
            <glyph glyph-name="ä" unicode="&#xE4;" horiz-adv-x="447" d=" M183,596 L173,596 Q163,596 163,607 L163,663 Q163,674 173,674 L183,674 Q193,674 193,663 L193,607 Q193,596 183,596 M360,596 L350,596 Q340,596 340,607 L340,663 Q340,674 350,674 L360,674 Q370,674 370,663 L370,607 Q370,596 360,596 M88,453 L85,471 Q234,492 314,492 Q447,492 447,358 L447,0 L429,0 L424,93 Q389,57 322,25.5 Q255,-6 191,-6 Q131,-6 98.5,25.5 Q66,57 66,115 L66,177 Q66,231 96,260.5 Q126,290 181,290 L423,290 L423,358 Q423,469 313,469 Q214,469 88,453 M91,177 L91,115 Q91,20 191,18 Q246,17 313,46.5 Q380,76 423,117 L423,270 L181,266 Q91,264 91,177"/> 
            <glyph glyph-name="å" unicode="&#xE5;" horiz-adv-x="447" d=" M307,537 Q227,537 199,564.5 Q171,592 171,632 Q171,671 199,699 Q227,727 267,727 Q307,727 335,699 Q363,671 363,632 Q363,592 307,537 M299,708 Q235,708 213.5,686 Q192,664 192,632 Q192,599 213.5,577.5 Q235,556 267,556 Q299,556 320.5,577.5 Q342,599 342,632 Q342,664 299,708 M88,453 L85,471 Q234,492 314,492 Q447,492 447,358 L447,0 L429,0 L424,93 Q389,57 322,25.5 Q255,-6 191,-6 Q131,-6 98.5,25.5 Q66,57 66,115 L66,177 Q66,231 96,260.5 Q126,290 181,290 L423,290 L423,358 Q423,469 313,469 Q214,469 88,453 M91,177 L91,115 Q91,20 191,18 Q246,17 313,46.5 Q380,76 423,117 L423,270 L181,266 Q91,264 91,177"/> 
            <glyph glyph-name="æ" unicode="&#xE6;" horiz-adv-x="819" d=" M675,227 L448,227 Q451,108 496,59.5 Q541,11 640,11 Q723,11 803,24 L807,6 Q749,-12 637,-12 Q558,-12 510.5,15 Q463,42 442,101 Q403,62 331.5,28 Q260,-6 191,-6 Q131,-6 98.5,25.5 Q66,57 66,115 L66,177 Q66,231 96,260.5 Q126,290 181,290 L423,290 L423,358 Q423,469 313,469 Q214,469 88,453 L85,471 Q234,492 314,492 Q430,492 445,391 Q484,492 629,492 Q815,492 818,356 Q819,285 786.5,256 Q754,227 675,227 M448,249 L675,249 Q741,249 767.5,272.5 Q794,296 793,354 Q790,469 630,469 Q531,469 490,419.5 Q449,370 448,249 M91,177 L91,115 Q91,20 191,18 Q248,17 318,47 Q388,77 436,121 Q425,163 423,224 L423,270 L181,266 Q91,264 91,177"/> 
            <glyph glyph-name="ç" unicode="&#xE7;" horiz-adv-x="434" d=" M430,23 L434,5 Q359,-12 289,-12 Q169,-12 119,45 Q69,102 69,240 Q69,378 118.5,435 Q168,492 288,492 Q368,492 423,475 L417,457 Q370,469 292,469 Q182,469 138,420 Q94,371 94,240 Q94,109 138,60 Q182,11 292,11 Q371,11 430,23 M254,-75 L257,-61 Q296,-59 316,-75 Q336,-91 335,-126 Q334,-178 296,-208.5 Q258,-239 196,-231 L200,-216 Q251,-218 282,-191.5 Q313,-165 313,-126 Q313,-98 300,-87 Q287,-76 254,-75"/> 
            <glyph glyph-name="è" unicode="&#xE8;" horiz-adv-x="466" d=" M302,554 L149,695 L167,712 L316,567 M361,227 L94,227 Q97,108 142,59.5 Q187,11 286,11 Q369,11 449,24 L453,6 Q395,-12 283,-12 Q169,-12 119,46.5 Q69,105 69,242 Q69,379 116,435.5 Q163,492 275,492 Q461,492 464,356 Q466,290 442,258.5 Q418,227 361,227 M94,249 L361,249 Q404,249 422.5,275 Q441,301 439,354 Q438,413 397.5,441 Q357,469 276,469 Q177,469 136,419.5 Q95,370 94,249"/> 
            <glyph glyph-name="é" unicode="&#xE9;" horiz-adv-x="466" d=" M243,554 L229,567 L378,712 L396,695 M361,227 L94,227 Q97,108 142,59.5 Q187,11 286,11 Q369,11 449,24 L453,6 Q395,-12 283,-12 Q169,-12 119,46.5 Q69,105 69,242 Q69,379 116,435.5 Q163,492 275,492 Q461,492 464,356 Q466,290 442,258.5 Q418,227 361,227 M94,249 L361,249 Q404,249 422.5,275 Q441,301 439,354 Q438,413 397.5,441 Q357,469 276,469 Q177,469 136,419.5 Q95,370 94,249"/> 
            <glyph glyph-name="ê" unicode="&#xEA;" horiz-adv-x="466" d=" M143,569 L131,581 L267,698 L285,698 L421,581 L410,569 L280,671 L272,671 M361,227 L94,227 Q97,108 142,59.5 Q187,11 286,11 Q369,11 449,24 L453,6 Q395,-12 283,-12 Q169,-12 119,46.5 Q69,105 69,242 Q69,379 116,435.5 Q163,492 275,492 Q461,492 464,356 Q466,290 442,258.5 Q418,227 361,227 M94,249 L361,249 Q404,249 422.5,275 Q441,301 439,354 Q438,413 397.5,441 Q357,469 276,469 Q177,469 136,419.5 Q95,370 94,249"/> 
            <glyph glyph-name="ë" unicode="&#xEB;" horiz-adv-x="466" d=" M193,596 L183,596 Q173,596 173,607 L173,663 Q173,674 183,674 L193,674 Q203,674 203,663 L203,607 Q203,596 193,596 M370,596 L360,596 Q350,596 350,607 L350,663 Q350,674 360,674 L370,674 Q380,674 380,663 L380,607 Q380,596 370,596 M361,227 L94,227 Q97,108 142,59.5 Q187,11 286,11 Q369,11 449,24 L453,6 Q395,-12 283,-12 Q169,-12 119,46.5 Q69,105 69,242 Q69,379 116,435.5 Q163,492 275,492 Q461,492 464,356 Q466,290 442,258.5 Q418,227 361,227 M94,249 L361,249 Q404,249 422.5,275 Q441,301 439,354 Q438,413 397.5,441 Q357,469 276,469 Q177,469 136,419.5 Q95,370 94,249"/> 
            <glyph glyph-name="ì" unicode="&#xEC;" horiz-adv-x="148" d=" M148,567 L134,554 L-19,695 L-1,712 M122,0 L98,0 L98,480 L122,480"/> 
            <glyph glyph-name="í" unicode="&#xED;" horiz-adv-x="228" d=" M228,695 L75,554 L61,567 L210,712 M122,0 L98,0 L98,480 L122,480"/> 
            <glyph glyph-name="î" unicode="&#xEE;" horiz-adv-x="253" d=" M253,581 L242,569 L112,671 L104,671 L-25,569 L-37,581 L99,698 L117,698 M122,0 L98,0 L98,480 L122,480"/> 
            <glyph glyph-name="ï" unicode="&#xEF;" horiz-adv-x="212" d=" M15,674 L25,674 Q35,674 35,663 L35,607 Q35,596 25,596 L15,596 Q5,596 5,607 L5,663 Q5,674 15,674 M192,674 L202,674 Q212,674 212,663 L212,607 Q212,596 202,596 L192,596 Q182,596 182,607 L182,663 Q182,674 192,674 M122,0 L98,0 L98,480 L122,480"/> 
            <glyph glyph-name="ð" unicode="&#xF0;" horiz-adv-x="467" d=" M425,681 L346,626 Q467,523 467,279 Q467,227 464,191 Q461,155 450,113.5 Q439,72 418.5,47 Q398,22 360.5,5 Q323,-12 270,-12 Q167,-12 118.5,43.5 Q70,99 70,221 Q70,446 269,446 Q352,446 436,392 Q413,541 327,613 L234,549 L223,566 L310,626 Q235,680 116,680 L122,698 Q246,700 329,640 L414,698 M270,10 Q325,10 360.5,29 Q396,48 413.5,88 Q431,128 437,172.5 Q443,217 443,286 Q443,320 439,370 Q353,424 264,424 Q172,424 133.5,370 Q95,316 95,220 Q95,108 137.5,59 Q180,10 270,10"/> 
            <glyph glyph-name="ñ" unicode="&#xF1;" horiz-adv-x="479" d=" M165,595 L148,595 Q147,640 167,663.5 Q187,687 223,684 Q253,682 293,650.5 Q333,619 363,616 Q394,614 407.5,629 Q421,644 421,679 L438,679 Q439,636 419,613.5 Q399,591 363,594 Q327,597 286.5,628.5 Q246,660 223,662 Q193,665 179,648.5 Q165,632 165,595 M113,480 L116,392 Q242,492 350,492 Q479,492 479,361 L479,0 L455,0 L455,358 Q455,469 345,469 Q294,469 243.5,446 Q193,423 119,371 L119,0 L95,0 L95,480"/> 
            <glyph glyph-name="ò" unicode="&#xF2;" horiz-adv-x="490" d=" M318,567 L304,554 L151,695 L169,712 M164,492 Q396,492 443,435.5 Q490,379 490,240 Q490,101 443,44.5 Q396,-12 280,-12 Q164,-12 117,44.5 Q70,101 70,240 Q70,379 164,492 M383,469 Q177,469 136,419 Q95,369 95,240 Q95,111 136,61 Q177,11 280,11 Q383,11 424,61 Q465,111 465,240 Q465,369 383,469"/> 
            <glyph glyph-name="ó" unicode="&#xF3;" horiz-adv-x="490" d=" M398,695 L245,554 L231,567 L380,712 M164,492 Q396,492 443,435.5 Q490,379 490,240 Q490,101 443,44.5 Q396,-12 280,-12 Q164,-12 117,44.5 Q70,101 70,240 Q70,379 164,492 M383,469 Q177,469 136,419 Q95,369 95,240 Q95,111 136,61 Q177,11 280,11 Q383,11 424,61 Q465,111 465,240 Q465,369 383,469"/> 
            <glyph glyph-name="ô" unicode="&#xF4;" horiz-adv-x="490" d=" M423,581 L412,569 L282,671 L274,671 L145,569 L133,581 L269,698 L287,698 M164,492 Q396,492 443,435.5 Q490,379 490,240 Q490,101 443,44.5 Q396,-12 280,-12 Q164,-12 117,44.5 Q70,101 70,240 Q70,379 164,492 M383,469 Q177,469 136,419 Q95,369 95,240 Q95,111 136,61 Q177,11 280,11 Q383,11 424,61 Q465,111 465,240 Q465,369 383,469"/> 
            <glyph glyph-name="õ" unicode="&#xF5;" horiz-adv-x="490" d=" M151,595 L134,595 Q133,640 153,663.5 Q173,687 209,684 Q238,682 279,650.5 Q320,619 349,616 Q380,614 393.5,629 Q407,644 407,679 L424,679 Q425,636 405,613.5 Q385,591 349,594 Q313,597 272.5,628.5 Q232,660 209,662 Q179,665 165,648.5 Q151,632 151,595 M164,492 Q396,492 443,435.5 Q490,379 490,240 Q490,101 443,44.5 Q396,-12 280,-12 Q164,-12 117,44.5 Q70,101 70,240 Q70,379 164,492 M383,469 Q177,469 136,419 Q95,369 95,240 Q95,111 136,61 Q177,11 280,11 Q383,11 424,61 Q465,111 465,240 Q465,369 383,469"/> 
            <glyph glyph-name="ö" unicode="&#xF6;" horiz-adv-x="490" d=" M185,674 L195,674 Q205,674 205,663 L205,607 Q205,596 195,596 L185,596 Q175,596 175,607 L175,663 Q175,674 185,674 M362,674 L372,674 Q382,674 382,663 L382,607 Q382,596 372,596 L362,596 Q352,596 352,607 L352,663 Q352,674 362,674 M164,492 Q396,492 443,435.5 Q490,379 490,240 Q490,101 443,44.5 Q396,-12 280,-12 Q164,-12 117,44.5 Q70,101 70,240 Q70,379 164,492 M383,469 Q177,469 136,419 Q95,369 95,240 Q95,111 136,61 Q177,11 280,11 Q383,11 424,61 Q465,111 465,240 Q465,369 383,469"/> 
            <glyph glyph-name="÷" unicode="&#xF7;" horiz-adv-x="503" d=" M288,502 L298,502 Q310,502 310,490 L310,428 Q310,416 298,416 L288,416 Q276,416 276,428 L276,490 Q276,502 288,502 M503,285 L86,285 L86,307 L503,307 M288,176 L298,176 Q310,176 310,164 L310,102 Q310,90 298,90 L288,90 Q276,90 276,102 L276,164 Q276,176 288,176"/> 
            <glyph glyph-name="ø" unicode="&#xF8;" horiz-adv-x="490" d=" M423,530 L396,472 Q446,448 468,393 Q490,338 490,240 Q490,101 443,44.5 Q396,-12 280,-12 Q219,-12 177,3 L147,-61 L128,-52 L158,12 Q111,36 90.5,91 Q70,146 70,240 Q70,379 117,435.5 Q164,492 280,492 Q338,492 376,479 L404,539 M168,34 L366,458 Q333,469 280,469 Q177,469 136,419 Q95,369 95,240 Q95,155 112,105.5 Q129,56 168,34 M385,450 L187,25 Q222,11 280,11 Q383,11 424,61 Q465,111 465,240 Q465,328 446,378 Q427,428 385,450"/> 
            <glyph glyph-name="ù" unicode="&#xF9;" horiz-adv-x="465" d=" M305,554 L152,695 L170,712 L319,567 M465,480 L465,0 L447,0 L444,88 Q324,-12 220,-12 Q91,-12 91,119 L91,480 L115,480 L115,122 Q115,11 225,11 Q274,11 322,34 Q370,57 441,109 L441,480"/> 
            <glyph glyph-name="ú" unicode="&#xFA;" horiz-adv-x="465" d=" M246,554 L232,567 L381,712 L399,695 M465,480 L465,0 L447,0 L444,88 Q324,-12 220,-12 Q91,-12 91,119 L91,480 L115,480 L115,122 Q115,11 225,11 Q274,11 322,34 Q370,57 441,109 L441,480"/> 
            <glyph glyph-name="û" unicode="&#xFB;" horiz-adv-x="465" d=" M146,569 L134,581 L270,698 L288,698 L424,581 L413,569 L283,671 L275,671 M465,480 L465,0 L447,0 L444,88 Q324,-12 220,-12 Q91,-12 91,119 L91,480 L115,480 L115,122 Q115,11 225,11 Q274,11 322,34 Q370,57 441,109 L441,480"/> 
            <glyph glyph-name="ü" unicode="&#xFC;" horiz-adv-x="465" d=" M196,596 L186,596 Q176,596 176,607 L176,663 Q176,674 186,674 L196,674 Q206,674 206,663 L206,607 Q206,596 196,596 M373,596 L363,596 Q353,596 353,607 L353,663 Q353,674 363,674 L373,674 Q383,674 383,663 L383,607 Q383,596 373,596 M465,480 L465,0 L447,0 L444,88 Q324,-12 220,-12 Q91,-12 91,119 L91,480 L115,480 L115,122 Q115,11 225,11 Q274,11 322,34 Q370,57 441,109 L441,480"/> 
            <glyph glyph-name="ý" unicode="&#xFD;" horiz-adv-x="477" d=" M222,554 L208,567 L357,712 L375,695 M477,480 L256,-47 Q227,-115 193.5,-154 Q160,-193 101,-210 L95,-196 Q150,-175 181,-136.5 Q212,-98 235,-38 L250,0 L240,0 Q232,0 227,8 L30,480 L56,480 L225,74 L247,22 L260,22 L282,76 L451,480"/> 
            <glyph glyph-name="þ" unicode="&#xFE;" horiz-adv-x="490" d=" M116,403 Q223,492 316,492 Q410,492 450,434.5 Q490,377 490,240 Q490,103 450,45.5 Q410,-12 316,-12 Q227,-12 116,41 Q119,16 119,-51 L119,-210 L95,-210 L95,700 L119,700 L119,496 Q119,429 116,403 M119,382 L119,59 Q239,11 316,11 Q397,11 431,63 Q465,115 465,240 Q465,365 431,417 Q397,469 316,469 Q270,469 225,449 Q180,429 119,382"/> 
            <glyph glyph-name="ÿ" unicode="&#xFF;" horiz-adv-x="477" d=" M172,596 L162,596 Q152,596 152,607 L152,663 Q152,674 162,674 L172,674 Q182,674 182,663 L182,607 Q182,596 172,596 M349,596 L339,596 Q329,596 329,607 L329,663 Q329,674 339,674 L349,674 Q359,674 359,663 L359,607 Q359,596 349,596 M477,480 L256,-47 Q227,-115 193.5,-154 Q160,-193 101,-210 L95,-196 Q150,-175 181,-136.5 Q212,-98 235,-38 L250,0 L240,0 Q232,0 227,8 L30,480 L56,480 L225,74 L247,22 L260,22 L282,76 L451,480"/> 
            <glyph glyph-name="Ā" unicode="&#x100;" horiz-adv-x="584" d=" M432,804 L172,804 L172,827 L432,827 M466,252 L137,252 L46,0 L19,0 L267,681 Q270,690 280,690 L323,690 Q333,690 336,681 L584,0 L557,0 M458,274 L336,612 L316,668 L287,668 L267,612 L145,274"/> 
            <glyph glyph-name="ā" unicode="&#x101;" horiz-adv-x="447" d=" M397,622 L137,622 L137,645 L397,645 M88,453 L85,471 Q234,492 314,492 Q447,492 447,358 L447,0 L429,0 L424,93 Q389,57 322,25.5 Q255,-6 191,-6 Q131,-6 98.5,25.5 Q66,57 66,115 L66,177 Q66,231 96,260.5 Q126,290 181,290 L423,290 L423,358 Q423,469 313,469 Q214,469 88,453 M91,177 L91,115 Q91,20 191,18 Q246,17 313,46.5 Q380,76 423,117 L423,270 L181,266 Q91,264 91,177"/> 
            <glyph glyph-name="Ă" unicode="&#x102;" horiz-adv-x="584" d=" M419,873 L437,869 Q437,816 400.5,785.5 Q364,755 302,755 Q239,755 202,785.5 Q165,816 165,869 L183,873 Q183,828 215,803.5 Q247,779 302,779 Q356,779 387.5,804 Q419,829 419,873 M466,252 L137,252 L46,0 L19,0 L267,681 Q270,690 280,690 L323,690 Q333,690 336,681 L584,0 L557,0 M458,274 L336,612 L316,668 L287,668 L267,612 L145,274"/> 
            <glyph glyph-name="ă" unicode="&#x103;" horiz-adv-x="447" d=" M384,691 L402,687 Q402,634 365.5,603.5 Q329,573 267,573 Q204,573 167,603.5 Q130,634 130,687 L148,691 Q148,646 180,621.5 Q212,597 267,597 Q321,597 352.5,622 Q384,647 384,691 M88,453 L85,471 Q234,492 314,492 Q447,492 447,358 L447,0 L429,0 L424,93 Q389,57 322,25.5 Q255,-6 191,-6 Q131,-6 98.5,25.5 Q66,57 66,115 L66,177 Q66,231 96,260.5 Q126,290 181,290 L423,290 L423,358 Q423,469 313,469 Q214,469 88,453 M91,177 L91,115 Q91,20 191,18 Q246,17 313,46.5 Q380,76 423,117 L423,270 L181,266 Q91,264 91,177"/> 
            <glyph glyph-name="Ą" unicode="&#x104;" horiz-adv-x="593" d=" M590,-182 L593,-194 Q517,-226 486.5,-202 Q456,-178 475,-124 Q497,-61 564,0 L557,0 L466,252 L137,252 L46,0 L19,0 L267,681 Q270,690 280,690 L323,690 Q333,690 336,681 L584,0 Q519,-65 497,-126 Q481,-172 507,-187.5 Q533,-203 590,-182 M458,274 L336,612 L316,668 L287,668 L267,612 L145,274"/> 
            <glyph glyph-name="ą" unicode="&#x105;" horiz-adv-x="456" d=" M453,-182 L456,-194 Q380,-226 349.5,-202 Q319,-178 338,-124 Q360,-61 429,2 L424,93 Q389,57 322,25.5 Q255,-6 191,-6 Q131,-6 98.5,25.5 Q66,57 66,115 L66,177 Q66,231 96,260.5 Q126,290 181,290 L423,290 L423,358 Q423,469 313,469 Q214,469 88,453 L85,471 Q234,492 314,492 Q447,492 447,358 L447,0 Q382,-65 360,-126 Q344,-172 370,-187.5 Q396,-203 453,-182 M91,177 L91,115 Q91,20 191,18 Q246,17 313,46.5 Q380,76 423,117 L423,270 L181,266 Q91,264 91,177"/> 
            <glyph glyph-name="Ć" unicode="&#x106;" horiz-adv-x="519" d=" M441,877 L288,736 L274,749 L423,894 M513,24 L519,6 Q440,-12 331,-12 Q189,-12 132.5,67.5 Q76,147 76,345 Q76,543 132.5,622.5 Q189,702 331,702 Q431,702 505,685 L499,667 Q424,679 331,679 Q203,679 152.5,605 Q102,531 102,345 Q102,159 152.5,85 Q203,11 331,11 Q438,11 513,24"/> 
            <glyph glyph-name="ć" unicode="&#x107;" horiz-adv-x="434" d=" M392,695 L239,554 L225,567 L374,712 M430,23 L434,5 Q359,-12 289,-12 Q169,-12 119,45 Q69,102 69,240 Q69,378 118.5,435 Q168,492 288,492 Q368,492 423,475 L417,457 Q370,469 292,469 Q182,469 138,420 Q94,371 94,240 Q94,109 138,60 Q182,11 292,11 Q371,11 430,23"/> 
            <glyph glyph-name="Ċ" unicode="&#x10A;" horiz-adv-x="519" d=" M317,860 L327,860 Q339,860 339,848 L339,786 Q339,774 327,774 L317,774 Q305,774 305,786 L305,848 Q305,860 317,860 M513,24 L519,6 Q440,-12 331,-12 Q189,-12 132.5,67.5 Q76,147 76,345 Q76,543 132.5,622.5 Q189,702 331,702 Q431,702 505,685 L499,667 Q424,679 331,679 Q203,679 152.5,605 Q102,531 102,345 Q102,159 152.5,85 Q203,11 331,11 Q438,11 513,24"/> 
            <glyph glyph-name="ċ" unicode="&#x10B;" horiz-adv-x="434" d=" M268,678 L278,678 Q290,678 290,666 L290,604 Q290,592 278,592 L268,592 Q256,592 256,604 L256,666 Q256,678 268,678 M430,23 L434,5 Q359,-12 289,-12 Q169,-12 119,45 Q69,102 69,240 Q69,378 118.5,435 Q168,492 288,492 Q368,492 423,475 L417,457 Q370,469 292,469 Q182,469 138,420 Q94,371 94,240 Q94,109 138,60 Q182,11 292,11 Q371,11 430,23"/> 
            <glyph glyph-name="Č" unicode="&#x10C;" horiz-adv-x="519" d=" M469,868 L332,751 L314,751 L177,868 L190,880 L319,778 L327,778 L457,880 M513,24 L519,6 Q440,-12 331,-12 Q189,-12 132.5,67.5 Q76,147 76,345 Q76,543 132.5,622.5 Q189,702 331,702 Q431,702 505,685 L499,667 Q424,679 331,679 Q203,679 152.5,605 Q102,531 102,345 Q102,159 152.5,85 Q203,11 331,11 Q438,11 513,24"/> 
            <glyph glyph-name="č" unicode="&#x10D;" horiz-adv-x="434" d=" M420,686 L283,569 L265,569 L128,686 L141,698 L270,596 L278,596 L408,698 M430,23 L434,5 Q359,-12 289,-12 Q169,-12 119,45 Q69,102 69,240 Q69,378 118.5,435 Q168,492 288,492 Q368,492 423,475 L417,457 Q370,469 292,469 Q182,469 138,420 Q94,371 94,240 Q94,109 138,60 Q182,11 292,11 Q371,11 430,23"/> 
            <glyph glyph-name="Ď" unicode="&#x10E;" horiz-adv-x="583" d=" M316,751 L179,868 L192,880 L321,778 L329,778 L459,880 L471,868 L334,751 M103,0 L103,690 Q222,699 332,699 Q471,699 527,619.5 Q583,540 583,345 Q583,150 527,70.5 Q471,-9 332,-9 Q224,-9 103,0 M128,672 L128,17 Q308,14 332,14 Q457,14 507,87.5 Q557,161 557,345 Q557,529 507,602.5 Q457,676 332,676 Q250,676 128,672"/> 
            <glyph glyph-name="ď" unicode="&#x10F;" horiz-adv-x="587" d=" M569,701 L576,701 Q587,701 587,691 L587,632 Q585,566 571,517 L561,521 Q564,577 564,623 Q561,623 559.5,626 Q558,629 559,632 L559,691 Q558,701 569,701 M442,700 L466,700 L466,0 L448,0 L444,84 Q336,-12 245,-12 Q151,-12 111,45.5 Q71,103 71,240 Q71,377 111,434.5 Q151,492 245,492 Q330,492 445,442 Q442,468 442,535 M442,107 L442,421 Q322,469 245,469 Q164,469 130,417 Q96,365 96,240 Q96,115 130,63 Q164,11 245,11 Q291,11 335.5,33 Q380,55 442,107"/> 
            <glyph glyph-name="Đ" unicode="&#x110;" horiz-adv-x="586" d=" M106,381 L106,690 Q225,699 335,699 Q474,699 530,619.5 Q586,540 586,345 Q586,150 530,70.5 Q474,-9 335,-9 Q227,-9 106,0 L106,361 L26,361 L26,381 M131,361 L131,17 Q311,14 335,14 Q460,14 510,87.5 Q560,161 560,345 Q560,529 510,602.5 Q460,676 335,676 Q253,676 131,672 L131,381 L314,381 L314,361"/> 
            <glyph glyph-name="đ" unicode="&#x111;" horiz-adv-x="540" d=" M540,590 L466,590 L466,0 L448,0 L444,84 Q336,-12 245,-12 Q151,-12 111,45.5 Q71,103 71,240 Q71,377 111,434.5 Q151,492 245,492 Q330,492 445,442 Q442,468 442,535 L442,590 L265,590 L265,610 L442,610 L442,700 L466,700 L466,610 L540,610 M442,107 L442,421 Q322,469 245,469 Q164,469 130,417 Q96,365 96,240 Q96,115 130,63 Q164,11 245,11 Q291,11 335.5,33 Q380,55 442,107"/> 
            <glyph glyph-name="Ē" unicode="&#x112;" horiz-adv-x="493" d=" M440,829 L180,829 L180,852 L440,852 M491,22 L493,4 Q395,0 199,0 Q155,0 126,29 Q97,58 97,102 L97,588 Q97,632 126,661 Q155,690 199,690 Q395,690 493,686 L491,668 L204,668 Q168,668 145,645 Q122,622 122,586 L122,380 L450,380 L450,359 L122,359 L122,104 Q122,68 145,45 Q168,22 204,22"/> 
            <glyph glyph-name="ē" unicode="&#x113;" horiz-adv-x="466" d=" M407,622 L147,622 L147,645 L407,645 M361,227 L94,227 Q97,108 142,59.5 Q187,11 286,11 Q369,11 449,24 L453,6 Q395,-12 283,-12 Q169,-12 119,46.5 Q69,105 69,242 Q69,379 116,435.5 Q163,492 275,492 Q461,492 464,356 Q466,290 442,258.5 Q418,227 361,227 M94,249 L361,249 Q404,249 422.5,275 Q441,301 439,354 Q438,413 397.5,441 Q357,469 276,469 Q177,469 136,419.5 Q95,370 94,249"/> 
            <glyph glyph-name="Ė" unicode="&#x116;" horiz-adv-x="493" d=" M315,799 L305,799 Q293,799 293,811 L293,873 Q293,885 305,885 L315,885 Q327,885 327,873 L327,811 Q327,799 315,799 M491,22 L493,4 Q395,0 199,0 Q155,0 126,29 Q97,58 97,102 L97,588 Q97,632 126,661 Q155,690 199,690 Q395,690 493,686 L491,668 L204,668 Q168,668 145,645 Q122,622 122,586 L122,380 L450,380 L450,359 L122,359 L122,104 Q122,68 145,45 Q168,22 204,22"/> 
            <glyph glyph-name="ė" unicode="&#x117;" horiz-adv-x="466" d=" M282,592 L272,592 Q260,592 260,604 L260,666 Q260,678 272,678 L282,678 Q294,678 294,666 L294,604 Q294,592 282,592 M361,227 L94,227 Q97,108 142,59.5 Q187,11 286,11 Q369,11 449,24 L453,6 Q395,-12 283,-12 Q169,-12 119,46.5 Q69,105 69,242 Q69,379 116,435.5 Q163,492 275,492 Q461,492 464,356 Q466,290 442,258.5 Q418,227 361,227 M94,249 L361,249 Q404,249 422.5,275 Q441,301 439,354 Q438,413 397.5,441 Q357,469 276,469 Q177,469 136,419.5 Q95,370 94,249"/> 
            <glyph glyph-name="Ę" unicode="&#x118;" horiz-adv-x="502" d=" M499,-178 L502,-190 Q426,-222 395.5,-198 Q365,-174 384,-120 Q406,-58 472,3 Q381,0 199,0 Q155,0 126,29 Q97,58 97,102 L97,588 Q97,632 126,661 Q155,690 199,690 Q395,690 493,686 L491,668 L204,668 Q168,668 145,645 Q122,622 122,586 L122,380 L450,380 L450,359 L122,359 L122,104 Q122,68 145,45 Q168,22 204,22 L491,22 L493,4 Q428,-61 406,-122 Q390,-168 416,-183.5 Q442,-199 499,-178"/> 
            <glyph glyph-name="ę" unicode="&#x119;" horiz-adv-x="466" d=" M449,24 L453,6 Q388,-59 366,-120 Q350,-166 376,-181.5 Q402,-197 459,-176 L462,-188 Q386,-220 355.5,-196 Q325,-172 344,-118 Q363,-60 426,0 Q357,-12 283,-12 Q169,-12 119,46.5 Q69,105 69,242 Q69,379 116,435.5 Q163,492 275,492 Q461,492 464,356 Q466,290 442,258.5 Q418,227 361,227 L94,227 Q97,108 142,59.5 Q187,11 286,11 Q369,11 449,24 M94,249 L361,249 Q404,249 422.5,275 Q441,301 439,354 Q438,413 397.5,441 Q357,469 276,469 Q177,469 136,419.5 Q95,370 94,249"/> 
            <glyph glyph-name="Ě" unicode="&#x11A;" horiz-adv-x="493" d=" M302,776 L165,893 L178,905 L307,803 L315,803 L445,905 L457,893 L320,776 M491,22 L493,4 Q395,0 199,0 Q155,0 126,29 Q97,58 97,102 L97,588 Q97,632 126,661 Q155,690 199,690 Q395,690 493,686 L491,668 L204,668 Q168,668 145,645 Q122,622 122,586 L122,380 L450,380 L450,359 L122,359 L122,104 Q122,68 145,45 Q168,22 204,22"/> 
            <glyph glyph-name="ě" unicode="&#x11B;" horiz-adv-x="466" d=" M269,569 L132,686 L145,698 L274,596 L282,596 L412,698 L424,686 L287,569 M361,227 L94,227 Q97,108 142,59.5 Q187,11 286,11 Q369,11 449,24 L453,6 Q395,-12 283,-12 Q169,-12 119,46.5 Q69,105 69,242 Q69,379 116,435.5 Q163,492 275,492 Q461,492 464,356 Q466,290 442,258.5 Q418,227 361,227 M94,249 L361,249 Q404,249 422.5,275 Q441,301 439,354 Q438,413 397.5,441 Q357,469 276,469 Q177,469 136,419.5 Q95,370 94,249"/> 
            <glyph glyph-name="Ğ" unicode="&#x11E;" horiz-adv-x="541" d=" M441,873 L459,869 Q459,816 422.5,785.5 Q386,755 324,755 Q261,755 224,785.5 Q187,816 187,869 L205,873 Q205,828 237,803.5 Q269,779 324,779 Q378,779 409.5,804 Q441,829 441,873 M541,400 L541,0 L524,0 L518,89 Q424,-12 304,-12 Q182,-12 129,72 Q76,156 76,345 Q76,543 133.5,622.5 Q191,702 334,702 Q446,702 530,685 L524,667 Q440,679 334,679 Q204,679 153,605 Q102,531 102,345 Q102,168 149,89.5 Q196,11 306,11 Q341,11 371,19 Q401,27 429.5,45 Q458,63 473,75 Q488,87 516,112 L516,400"/> 
            <glyph glyph-name="ğ" unicode="&#x11F;" horiz-adv-x="516" d=" M387,691 L405,687 Q405,634 368.5,603.5 Q332,573 270,573 Q207,573 170,603.5 Q133,634 133,687 L151,691 Q151,646 183,621.5 Q215,597 270,597 Q324,597 355.5,622 Q387,647 387,691 M513,462 L410,459 Q459,423 459,343 Q459,267 414.5,231.5 Q370,196 269,196 Q191,196 146,217 Q123,192 116.5,165.5 Q110,139 128,117 Q146,95 188,87 L381,53 Q442,42 463.5,13.5 Q485,-15 485,-74 Q485,-150 437,-181 Q389,-212 274,-212 Q154,-212 105.5,-181 Q57,-150 57,-74 Q57,-20 70,10.5 Q83,41 122,62 L146,75 Q112,89 99.5,117 Q87,145 96,174.5 Q105,204 131,226 Q77,260 77,343 Q77,418 122.5,455 Q168,492 269,492 Q327,492 366,480 L516,480 M435,278 Q435,408 397,439 Q359,470 269,470 Q179,470 140,439 Q101,408 101,343 Q101,278 140,248 Q179,218 269,218 Q359,218 435,278 M172,68 L138,47 Q103,27 92,1.5 Q81,-24 81,-74 Q81,-138 124.5,-163.5 Q168,-189 274,-189 Q376,-189 418.5,-163 Q461,-137 461,-74 Q461,-24 443.5,-0.5 Q426,23 374,32 L175,67"/> 
            <glyph glyph-name="Ġ" unicode="&#x120;" horiz-adv-x="541" d=" M329,774 L319,774 Q307,774 307,786 L307,848 Q307,860 319,860 L329,860 Q341,860 341,848 L341,786 Q341,774 329,774 M541,400 L541,0 L524,0 L518,89 Q424,-12 304,-12 Q182,-12 129,72 Q76,156 76,345 Q76,543 133.5,622.5 Q191,702 334,702 Q446,702 530,685 L524,667 Q440,679 334,679 Q204,679 153,605 Q102,531 102,345 Q102,168 149,89.5 Q196,11 306,11 Q341,11 371,19 Q401,27 429.5,45 Q458,63 473,75 Q488,87 516,112 L516,400"/> 
            <glyph glyph-name="ġ" unicode="&#x121;" horiz-adv-x="516" d=" M275,592 L265,592 Q253,592 253,604 L253,666 Q253,678 265,678 L275,678 Q287,678 287,666 L287,604 Q287,592 275,592 M513,462 L410,459 Q459,423 459,343 Q459,267 414.5,231.5 Q370,196 269,196 Q191,196 146,217 Q123,192 116.5,165.5 Q110,139 128,117 Q146,95 188,87 L381,53 Q442,42 463.5,13.5 Q485,-15 485,-74 Q485,-150 437,-181 Q389,-212 274,-212 Q154,-212 105.5,-181 Q57,-150 57,-74 Q57,-20 70,10.5 Q83,41 122,62 L146,75 Q112,89 99.5,117 Q87,145 96,174.5 Q105,204 131,226 Q77,260 77,343 Q77,418 122.5,455 Q168,492 269,492 Q327,492 366,480 L516,480 M435,278 Q435,408 397,439 Q359,470 269,470 Q179,470 140,439 Q101,408 101,343 Q101,278 140,248 Q179,218 269,218 Q359,218 435,278 M172,68 L138,47 Q103,27 92,1.5 Q81,-24 81,-74 Q81,-138 124.5,-163.5 Q168,-189 274,-189 Q376,-189 418.5,-163 Q461,-137 461,-74 Q461,-24 443.5,-0.5 Q426,23 374,32 L175,67"/> 
            <glyph glyph-name="Ģ" unicode="&#x122;" horiz-adv-x="541" d=" M541,400 L541,0 L524,0 L518,89 Q424,-12 304,-12 Q182,-12 129,72 Q76,156 76,345 Q76,543 133.5,622.5 Q191,702 334,702 Q446,702 530,685 L524,667 Q440,679 334,679 Q204,679 153,605 Q102,531 102,345 Q102,168 149,89.5 Q196,11 306,11 Q341,11 371,19 Q401,27 429.5,45 Q458,63 473,75 Q488,87 516,112 L516,400 M318,-65 L326,-65 Q337,-65 337,-76 L337,-134 Q335,-200 321,-249 L310,-245 Q313,-189 313,-143 Q310,-143 308.5,-140 Q307,-137 308,-134 L308,-76 Q307,-65 318,-65"/> 
            <glyph glyph-name="ģ" unicode="&#x123;" horiz-adv-x="516" d=" M278,566 L270,566 Q259,566 259,577 L259,635 Q261,701 275,750 L286,746 Q283,690 283,644 Q286,644 287.5,641 Q289,638 288,635 L288,577 Q289,566 278,566 M513,462 L410,459 Q459,423 459,343 Q459,267 414.5,231.5 Q370,196 269,196 Q191,196 146,217 Q123,192 116.5,165.5 Q110,139 128,117 Q146,95 188,87 L381,53 Q442,42 463.5,13.5 Q485,-15 485,-74 Q485,-150 437,-181 Q389,-212 274,-212 Q154,-212 105.5,-181 Q57,-150 57,-74 Q57,-20 70,10.5 Q83,41 122,62 L146,75 Q112,89 99.5,117 Q87,145 96,174.5 Q105,204 131,226 Q77,260 77,343 Q77,418 122.5,455 Q168,492 269,492 Q327,492 366,480 L516,480 M435,278 Q435,408 397,439 Q359,470 269,470 Q179,470 140,439 Q101,408 101,343 Q101,278 140,248 Q179,218 269,218 Q359,218 435,278 M172,68 L138,47 Q103,27 92,1.5 Q81,-24 81,-74 Q81,-138 124.5,-163.5 Q168,-189 274,-189 Q376,-189 418.5,-163 Q461,-137 461,-74 Q461,-24 443.5,-0.5 Q426,23 374,32 L175,67"/> 
            <glyph glyph-name="Ħ" unicode="&#x126;" horiz-adv-x="638" d=" M638,525 L558,525 L558,0 L533,0 L533,359 L132,359 L132,0 L107,0 L107,525 L27,525 L27,545 L107,545 L107,690 L132,690 L132,545 L533,545 L533,690 L558,690 L558,545 L638,545 M533,525 L132,525 L132,381 L533,381"/> 
            <glyph glyph-name="ħ" unicode="&#x127;" horiz-adv-x="482" d=" M124,590 L124,485 Q124,426 119,392 Q253,492 353,492 Q482,492 482,361 L482,0 L458,0 L458,358 Q458,469 348,469 Q297,469 246.5,446 Q196,423 122,371 L122,0 L98,0 L98,590 L13,590 L13,610 L98,610 L98,700 L123,700 L123,610 L288,610 L288,590"/> 
            <glyph glyph-name="Ī" unicode="&#x12A;" horiz-adv-x="245" d=" M245,804 L-15,804 L-15,827 L245,827 M128,0 L103,0 L103,690 L128,690"/> 
            <glyph glyph-name="ī" unicode="&#x12B;" horiz-adv-x="239" d=" M239,622 L-21,622 L-21,645 L239,645 M122,0 L98,0 L98,480 L122,480"/> 
            <glyph glyph-name="Į" unicode="&#x12E;" horiz-adv-x="137" d=" M134,-182 L137,-194 Q61,-226 30.5,-202 Q0,-178 19,-124 Q41,-61 108,0 L103,0 L103,690 L128,690 L128,0 Q63,-65 41,-126 Q25,-172 51,-187.5 Q77,-203 134,-182"/> 
            <glyph glyph-name="į" unicode="&#x12F;" horiz-adv-x="131" d=" M114,592 L104,592 Q92,592 92,604 L92,666 Q92,678 104,678 L114,678 Q126,678 126,666 L126,604 Q126,592 114,592 M128,-182 L131,-194 Q55,-226 24.5,-202 Q-6,-178 13,-124 Q35,-61 102,0 L98,0 L98,480 L122,480 L122,0 Q57,-65 35,-126 Q19,-172 45,-187.5 Q71,-203 128,-182"/> 
            <glyph glyph-name="İ" unicode="&#x130;" horiz-adv-x="132" d=" M110,860 L120,860 Q132,860 132,848 L132,786 Q132,774 120,774 L110,774 Q98,774 98,786 L98,848 Q98,860 110,860 M128,0 L103,0 L103,690 L128,690"/> 
            <glyph glyph-name="ı" unicode="&#x131;" horiz-adv-x="122" d=" M122,0 L98,0 L98,480 L122,480"/> 
            <glyph glyph-name="Ĳ" unicode="&#x132;" horiz-adv-x="455" d=" M128,0 L103,0 L103,690 L128,690 M455,690 L455,115 Q455,-7 333,-6 Q305,-6 269,0 L272,16 L330,16 Q430,16 430,116 L430,690"/> 
            <glyph glyph-name="ĳ" unicode="&#x133;" horiz-adv-x="347" d=" M105,679 L115,679 Q127,679 127,667 L127,605 Q127,593 115,593 L105,593 Q93,593 93,605 L93,667 Q93,679 105,679 M325,679 L335,679 Q347,679 347,667 L347,605 Q347,593 335,593 L325,593 Q313,593 313,605 L313,667 Q313,679 325,679 M122,0 L98,0 L98,480 L122,480 M342,480 L342,-46 Q342,-136 276,-210 L263,-200 Q318,-127 318,-46 L318,480"/> 
            <glyph glyph-name="Ķ" unicode="&#x136;" horiz-adv-x="529" d=" M529,0 L499,0 L239,349 L125,349 Q127,318 127,263 L127,0 L103,0 L103,690 L127,690 L127,454 Q127,431 125,371 L239,371 L482,690 L512,690 L281,385 Q270,370 259,361 L259,359 Q277,341 281,336 M301,-65 L309,-65 Q320,-65 320,-76 L320,-134 Q318,-200 304,-249 L293,-245 Q296,-189 296,-143 Q293,-143 291.5,-140 Q290,-137 291,-134 L291,-76 Q290,-65 301,-65"/> 
            <glyph glyph-name="ķ" unicode="&#x137;" horiz-adv-x="440" d=" M440,0 L409,0 L199,264 L116,264 Q118,233 118,177 L118,0 L94,0 L94,700 L120,700 L120,368 Q120,325 116,286 L199,286 L392,480 L424,480 L243,295 Q229,281 220,275 L220,273 Q237,256 243,248 M256,-65 L264,-65 Q275,-65 275,-76 L275,-134 Q273,-200 259,-249 L248,-245 Q251,-189 251,-143 Q248,-143 246.5,-140 Q245,-137 246,-134 L246,-76 Q245,-65 256,-65"/> 
            <glyph glyph-name="Ĺ" unicode="&#x139;" horiz-adv-x="479" d=" M232,877 L79,736 L65,749 L214,894 M125,690 L125,104 Q125,68 148,45 Q171,22 207,22 L479,22 L479,4 Q387,0 202,0 Q158,0 129,29 Q100,58 100,102 L100,690"/> 
            <glyph glyph-name="ĺ" unicode="&#x13A;" horiz-adv-x="260" d=" M227,900 L74,759 L60,772 L209,917 M119,700 L119,96 Q119,57 140,36.5 Q161,16 199,16 L257,16 L260,0 Q240,-6 196,-6 Q150,-6 122.5,20.5 Q95,47 95,95 L95,700"/> 
            <glyph glyph-name="Ļ" unicode="&#x13B;" horiz-adv-x="479" d=" M125,690 L125,104 Q125,68 148,45 Q171,22 207,22 L479,22 L479,4 Q387,0 202,0 Q158,0 129,29 Q100,58 100,102 L100,690 M297,-75 L305,-75 Q316,-75 316,-86 L316,-144 Q314,-210 300,-259 L289,-255 Q292,-200 292,-153 Q289,-153 287.5,-150 Q286,-147 287,-144 L287,-86 Q286,-75 297,-75"/> 
            <glyph glyph-name="ļ" unicode="&#x13C;" horiz-adv-x="260" d=" M119,700 L119,96 Q119,57 140,36.5 Q161,16 199,16 L257,16 L260,0 Q240,-6 196,-6 Q150,-6 122.5,20.5 Q95,47 95,95 L95,700 M162,-75 L170,-75 Q181,-75 181,-86 L181,-144 Q179,-210 165,-259 L154,-255 Q157,-199 157,-153 Q154,-153 152.5,-150 Q151,-147 152,-144 L152,-86 Q151,-75 162,-75"/> 
            <glyph glyph-name="Ľ" unicode="&#x13D;" horiz-adv-x="479" d=" M285,690 L293,690 Q304,690 304,679 L304,621 Q302,555 288,506 L277,510 Q280,566 280,612 Q277,612 275.5,615 Q274,618 275,621 L275,679 Q274,690 285,690 M125,690 L125,104 Q125,68 148,45 Q171,22 207,22 L479,22 L479,4 Q387,0 202,0 Q158,0 129,29 Q100,58 100,102 L100,690"/> 
            <glyph glyph-name="ľ" unicode="&#x13E;" horiz-adv-x="260" d=" M224,701 L231,701 Q242,701 242,691 L242,632 Q240,566 226,517 L216,521 Q219,576 219,623 Q216,623 214.5,626 Q213,629 214,632 L214,691 Q213,701 224,701 M119,700 L119,96 Q119,57 140,36.5 Q161,16 199,16 L257,16 L260,0 Q240,-6 196,-6 Q150,-6 122.5,20.5 Q95,47 95,95 L95,700"/> 
            <glyph glyph-name="Ŀ" unicode="&#x13F;" horiz-adv-x="479" d=" M125,690 L125,104 Q125,68 148,45 Q171,22 207,22 L479,22 L479,4 Q387,0 202,0 Q158,0 129,29 Q100,58 100,102 L100,690 M373,331 L363,331 Q351,331 351,343 L351,405 Q351,417 363,417 L373,417 Q385,417 385,405 L385,343 Q385,331 373,331"/> 
            <glyph glyph-name="ŀ" unicode="&#x140;" horiz-adv-x="264" d=" M119,700 L119,96 Q119,57 140,36.5 Q161,16 199,16 L257,16 L260,0 Q240,-6 196,-6 Q150,-6 122.5,20.5 Q95,47 95,95 L95,700 M252,347 L242,347 Q230,347 230,359 L230,421 Q230,433 242,433 L252,433 Q264,433 264,421 L264,359 Q264,347 252,347"/> 
            <glyph glyph-name="Ł" unicode="&#x141;" horiz-adv-x="483" d=" M483,22 L483,4 Q391,0 206,0 Q162,0 133,29 Q104,58 104,102 L104,357 L27,323 L27,344 L104,378 L104,690 L129,690 L129,389 L258,446 L258,425 L129,368 L129,104 Q129,68 152,45 Q175,22 211,22"/> 
            <glyph glyph-name="ł" unicode="&#x142;" horiz-adv-x="284" d=" M281,16 L284,0 Q264,-6 220,-6 Q174,-6 146.5,20.5 Q119,47 119,95 L119,363 L31,324 L31,345 L119,384 L119,700 L143,700 L143,394 L262,447 L262,426 L143,373 L143,96 Q143,57 164,36.5 Q185,16 223,16"/> 
            <glyph glyph-name="Ń" unicode="&#x143;" horiz-adv-x="585" d=" M477,877 L324,736 L310,749 L459,894 M585,690 L585,15 Q585,0 570,0 L528,0 Q516,0 510,11 L190,600 Q184,611 171.5,634 Q159,657 153,668 L128,668 L128,599 L128,0 L103,0 L103,675 Q103,690 118,690 L157,690 Q170,690 175,679 L488,103 L532,22 L560,22 L560,112 L560,690"/> 
            <glyph glyph-name="ń" unicode="&#x144;" horiz-adv-x="479" d=" M259,554 L245,567 L394,712 L412,695 M113,480 L116,392 Q242,492 350,492 Q479,492 479,361 L479,0 L455,0 L455,358 Q455,469 345,469 Q294,469 243.5,446 Q193,423 119,371 L119,0 L95,0 L95,480"/> 
            <glyph glyph-name="Ņ" unicode="&#x145;" horiz-adv-x="585" d=" M585,690 L585,15 Q585,0 570,0 L528,0 Q516,0 510,11 L190,600 Q184,611 171.5,634 Q159,657 153,668 L128,668 L128,599 L128,0 L103,0 L103,675 Q103,690 118,690 L157,690 Q170,690 175,679 L488,103 L532,22 L560,22 L560,112 L560,690 M326,-65 L334,-65 Q345,-65 345,-76 L345,-134 Q343,-200 329,-249 L318,-245 Q321,-189 321,-143 Q318,-143 316.5,-140 Q315,-137 316,-134 L316,-76 Q315,-65 326,-65"/> 
            <glyph glyph-name="ņ" unicode="&#x146;" horiz-adv-x="479" d=" M113,480 L116,392 Q242,492 350,492 Q479,492 479,361 L479,0 L455,0 L455,358 Q455,469 345,469 Q294,469 243.5,446 Q193,423 119,371 L119,0 L95,0 L95,480 M286,-65 L294,-65 Q305,-65 305,-76 L305,-134 Q303,-200 289,-249 L278,-245 Q281,-189 281,-143 Q278,-143 276.5,-140 Q275,-137 276,-134 L276,-76 Q275,-65 286,-65"/> 
            <glyph glyph-name="Ň" unicode="&#x147;" horiz-adv-x="585" d=" M505,868 L368,751 L350,751 L213,868 L226,880 L355,778 L363,778 L493,880 M585,690 L585,15 Q585,0 570,0 L528,0 Q516,0 510,11 L190,600 Q184,611 171.5,634 Q159,657 153,668 L128,668 L128,599 L128,0 L103,0 L103,675 Q103,690 118,690 L157,690 Q170,690 175,679 L488,103 L532,22 L560,22 L560,112 L560,690"/> 
            <glyph glyph-name="ň" unicode="&#x148;" horiz-adv-x="479" d=" M285,569 L148,686 L161,698 L290,596 L298,596 L428,698 L440,686 L303,569 M113,480 L116,392 Q242,492 350,492 Q479,492 479,361 L479,0 L455,0 L455,358 Q455,469 345,469 Q294,469 243.5,446 Q193,423 119,371 L119,0 L95,0 L95,480"/> 
            <glyph glyph-name="Ŋ" unicode="&#x14A;" horiz-adv-x="585" d=" M585,690 L585,-101 Q585,-223 463,-222 Q435,-222 399,-216 L402,-200 L460,-200 Q560,-200 560,-100 L560,0 L528,0 Q516,0 510,11 L190,600 Q184,611 171.5,634 Q159,657 153,668 L128,668 L128,598 L128,0 L103,0 L103,675 Q103,690 118,690 L157,690 Q170,690 175,679 L488,103 L532,22 L560,22 L560,112 L560,690"/> 
            <glyph glyph-name="ŋ" unicode="&#x14B;" horiz-adv-x="479" d=" M113,480 L116,392 Q242,492 350,492 Q479,492 479,361 L479,-89 Q479,-150 451.5,-180.5 Q424,-211 368,-210 Q364,-210 314,-204 L317,-188 L365,-188 Q455,-188 455,-88 L455,358 Q455,469 345,469 Q294,469 243.5,446 Q193,423 119,371 L119,0 L95,0 L95,480"/> 
            <glyph glyph-name="Ō" unicode="&#x14C;" horiz-adv-x="586" d=" M462,804 L202,804 L202,827 L462,827 M189,702 Q473,702 529.5,622.5 Q586,543 586,345 Q586,147 529.5,67.5 Q473,-12 331,-12 Q189,-12 132.5,67.5 Q76,147 76,345 Q76,543 189,702 M459,679 Q203,679 152.5,605 Q102,531 102,345 Q102,159 152.5,85 Q203,11 331,11 Q459,11 509.5,85 Q560,159 560,345 Q560,531 459,679"/> 
            <glyph glyph-name="ō" unicode="&#x14D;" horiz-adv-x="490" d=" M409,622 L149,622 L149,645 L409,645 M164,492 Q396,492 443,435.5 Q490,379 490,240 Q490,101 443,44.5 Q396,-12 280,-12 Q164,-12 117,44.5 Q70,101 70,240 Q70,379 164,492 M383,469 Q177,469 136,419 Q95,369 95,240 Q95,111 136,61 Q177,11 280,11 Q383,11 424,61 Q465,111 465,240 Q465,369 383,469"/> 
            <glyph glyph-name="Ő" unicode="&#x150;" horiz-adv-x="586" d=" M368,886 L251,734 L235,744 L346,901 M508,886 L391,734 L375,744 L486,901 M189,702 Q473,702 529.5,622.5 Q586,543 586,345 Q586,147 529.5,67.5 Q473,-12 331,-12 Q189,-12 132.5,67.5 Q76,147 76,345 Q76,543 189,702 M459,679 Q203,679 152.5,605 Q102,531 102,345 Q102,159 152.5,85 Q203,11 331,11 Q459,11 509.5,85 Q560,159 560,345 Q560,531 459,679"/> 
            <glyph glyph-name="ő" unicode="&#x151;" horiz-adv-x="490" d=" M315,704 L198,552 L182,562 L293,719 M455,704 L338,552 L322,562 L433,719 M164,492 Q396,492 443,435.5 Q490,379 490,240 Q490,101 443,44.5 Q396,-12 280,-12 Q164,-12 117,44.5 Q70,101 70,240 Q70,379 164,492 M383,469 Q177,469 136,419 Q95,369 95,240 Q95,111 136,61 Q177,11 280,11 Q383,11 424,61 Q465,111 465,240 Q465,369 383,469"/> 
            <glyph glyph-name="Œ" unicode="&#x152;" horiz-adv-x="831" d=" M831,668 L562,668 Q526,668 503,645 Q480,622 480,586 L480,380 L788,380 L788,359 L480,359 L480,104 Q480,68 503,45 Q526,22 562,22 L831,22 L831,4 Q739,0 557,0 Q521,0 492,21 Q418,-12 331,-12 Q189,-12 132.5,67.5 Q76,147 76,345 Q76,543 132.5,622.5 Q189,702 331,702 Q382,702 415,695 Q448,688 492,669 Q519,690 557,690 Q739,690 831,686 M455,102 L455,588 Q455,625 475,651 Q408,679 331,679 Q203,679 152.5,606 Q102,533 102,345 Q102,159 152.5,85 Q203,11 331,11 Q408,11 475,39 Q455,65 455,102"/> 
            <glyph glyph-name="œ" unicode="&#x153;" horiz-adv-x="861" d=" M717,227 L490,227 Q493,108 538,59.5 Q583,11 682,11 Q765,11 845,24 L849,6 Q791,-12 679,-12 Q594,-12 545.5,19.5 Q497,51 478,120 Q461,49 414,18.5 Q367,-12 280,-12 Q164,-12 117,44.5 Q70,101 70,240 Q70,379 117,435.5 Q164,492 280,492 Q366,492 413,462 Q460,432 478,363 Q496,432 542,462 Q588,492 671,492 Q857,492 860,356 Q861,285 828.5,256 Q796,227 717,227 M177,11 Q383,11 424,61 Q465,111 465,240 Q465,369 424,419 Q383,469 280,469 Q177,469 136,419 Q95,369 95,240 Q95,111 177,11 M490,249 L717,249 Q783,249 809.5,272.5 Q836,296 835,354 Q832,469 672,469 Q573,469 532,419.5 Q491,370 490,249"/> 
            <glyph glyph-name="Ŕ" unicode="&#x154;" horiz-adv-x="548" d=" M269,736 L255,749 L404,894 L422,877 M548,0 L520,0 L446,218 Q414,310 333,310 Q196,310 128,314 L128,0 L103,0 L103,690 Q183,698 324,698 Q436,698 479.5,657.5 Q523,617 523,504 Q523,412 493.5,371 Q464,330 396,320 L396,316 Q444,301 472,221 M128,333 L324,333 Q421,335 459,370.5 Q497,406 497,504 Q497,604 459,639.5 Q421,675 324,675 Q196,675 128,673"/> 
            <glyph glyph-name="ŕ" unicode="&#x155;" horiz-adv-x="360" d=" M187,554 L173,567 L322,712 L340,695 M360,492 L355,469 L338,469 Q289,469 240.5,446 Q192,423 119,371 L119,0 L95,0 L95,480 L113,480 L116,392 Q243,492 341,492"/> 
            <glyph glyph-name="Ŗ" unicode="&#x156;" horiz-adv-x="548" d=" M548,0 L520,0 L446,218 Q414,310 333,310 Q196,310 128,314 L128,0 L103,0 L103,690 Q183,698 324,698 Q436,698 479.5,657.5 Q523,617 523,504 Q523,412 493.5,371 Q464,330 396,320 L396,316 Q444,301 472,221 M128,333 L324,333 Q421,335 459,370.5 Q497,406 497,504 Q497,604 459,639.5 Q421,675 324,675 Q196,675 128,673 M324,-65 L332,-65 Q343,-65 343,-76 L343,-134 Q341,-200 327,-249 L316,-245 Q319,-189 319,-143 Q316,-143 314.5,-140 Q313,-137 314,-134 L314,-76 Q313,-65 324,-65"/> 
            <glyph glyph-name="ŗ" unicode="&#x157;" horiz-adv-x="360" d=" M360,492 L355,469 L338,469 Q289,469 240.5,446 Q192,423 119,371 L119,0 L95,0 L95,480 L113,480 L116,392 Q243,492 341,492 M97,-65 L105,-65 Q116,-65 116,-76 L116,-134 Q114,-200 100,-249 L89,-245 Q92,-189 92,-143 Q89,-143 87.5,-140 Q86,-137 87,-134 L87,-76 Q86,-65 97,-65"/> 
            <glyph glyph-name="Ř" unicode="&#x158;" horiz-adv-x="548" d=" M295,751 L158,868 L171,880 L300,778 L308,778 L438,880 L450,868 L313,751 M548,0 L520,0 L446,218 Q414,310 333,310 Q196,310 128,314 L128,0 L103,0 L103,690 Q183,698 324,698 Q436,698 479.5,657.5 Q523,617 523,504 Q523,412 493.5,371 Q464,330 396,320 L396,316 Q444,301 472,221 M128,333 L324,333 Q421,335 459,370.5 Q497,406 497,504 Q497,604 459,639.5 Q421,675 324,675 Q196,675 128,673"/> 
            <glyph glyph-name="ř" unicode="&#x159;" horiz-adv-x="368" d=" M213,569 L76,686 L89,698 L218,596 L226,596 L356,698 L368,686 L231,569 M113,480 L116,392 Q243,492 341,492 L360,492 L355,469 L338,469 Q289,469 240.5,446 Q192,423 119,371 L119,0 L95,0 L95,480"/> 
            <glyph glyph-name="Ś" unicode="&#x15A;" horiz-adv-x="492" d=" M399,877 L246,736 L232,749 L381,894 M353,326 L200,347 Q128,355 97,397 Q66,439 66,524 Q66,585 77.5,621.5 Q89,658 118.5,675.5 Q148,693 181,697.5 Q214,702 274,701 Q371,699 461,689 L458,670 Q338,678 274,678 Q235,678 215.5,677 Q196,676 170.5,671.5 Q145,667 133.5,657.5 Q122,648 110.5,631 Q99,614 95,588 Q91,562 91,524 Q91,448 116,413.5 Q141,379 200,371 L353,350 Q429,341 460.5,300 Q492,259 492,169 Q492,121 482.5,87.5 Q473,54 457.5,34.5 Q442,15 413.5,5 Q385,-5 356.5,-8 Q328,-11 282,-11 Q172,-11 78,0 L81,19 Q185,11 283,12 Q338,13 369,18 Q400,23 424,39.5 Q448,56 457.5,87 Q467,118 467,169 Q467,250 441.5,284 Q416,318 353,326"/> 
            <glyph glyph-name="ś" unicode="&#x15B;" horiz-adv-x="437" d=" M372,695 L219,554 L205,567 L354,712 M328,221 L166,241 Q114,247 88,276 Q62,305 62,365 Q62,449 101,471.5 Q140,494 239,492 Q338,490 425,480 L422,462 Q326,469 239,470 Q201,471 181,470 Q161,469 139.5,464 Q118,459 108.5,447.5 Q99,436 92.5,416 Q86,396 86,365 Q86,314 106,291.5 Q126,269 166,264 L328,244 Q437,230 437,122 Q437,77 425.5,50 Q414,23 387,10 Q360,-3 330,-7 Q300,-11 248,-11 Q154,-11 74,0 L77,18 Q164,10 249,11 Q345,13 379,33 Q413,53 413,122 Q413,210 328,221"/> 
            <glyph glyph-name="Ş" unicode="&#x15E;" horiz-adv-x="492" d=" M353,326 L200,347 Q128,355 97,397 Q66,439 66,524 Q66,585 77.5,621.5 Q89,658 118.5,675.5 Q148,693 181,697.5 Q214,702 274,701 Q371,699 461,689 L458,670 Q338,678 274,678 Q235,678 215.5,677 Q196,676 170.5,671.5 Q145,667 133.5,657.5 Q122,648 110.5,631 Q99,614 95,588 Q91,562 91,524 Q91,448 116,413.5 Q141,379 200,371 L353,350 Q429,341 460.5,300 Q492,259 492,169 Q492,121 482.5,87.5 Q473,54 457.5,34.5 Q442,15 413.5,5 Q385,-5 356.5,-8 Q328,-11 282,-11 Q172,-11 78,0 L81,19 Q185,11 283,12 Q338,13 369,18 Q400,23 424,39.5 Q448,56 457.5,87 Q467,118 467,169 Q467,250 441.5,284 Q416,318 353,326 M250,-74 L253,-60 Q292,-58 312,-74 Q332,-90 331,-125 Q330,-177 292,-207.5 Q254,-238 192,-230 L196,-215 Q247,-217 278,-190.5 Q309,-164 309,-125 Q309,-97 296,-86 Q283,-75 250,-74"/> 
            <glyph glyph-name="ş" unicode="&#x15F;" horiz-adv-x="437" d=" M328,221 L166,241 Q114,247 88,276 Q62,305 62,365 Q62,449 101,471.5 Q140,494 239,492 Q338,490 425,480 L422,462 Q326,469 239,470 Q201,471 181,470 Q161,469 139.5,464 Q118,459 108.5,447.5 Q99,436 92.5,416 Q86,396 86,365 Q86,314 106,291.5 Q126,269 166,264 L328,244 Q437,230 437,122 Q437,77 425.5,50 Q414,23 387,10 Q360,-3 330,-7 Q300,-11 248,-11 Q154,-11 74,0 L77,18 Q164,10 249,11 Q345,13 379,33 Q413,53 413,122 Q413,210 328,221 M216,-74 L219,-60 Q258,-58 278,-74 Q298,-90 297,-125 Q296,-177 258,-207.5 Q220,-238 158,-230 L162,-215 Q213,-217 244,-190.5 Q275,-164 275,-125 Q275,-97 262,-86 Q249,-75 216,-74"/> 
            <glyph glyph-name="Š" unicode="&#x160;" horiz-adv-x="492" d=" M427,868 L290,751 L272,751 L135,868 L148,880 L277,778 L285,778 L415,880 M353,326 L200,347 Q128,355 97,397 Q66,439 66,524 Q66,585 77.5,621.5 Q89,658 118.5,675.5 Q148,693 181,697.5 Q214,702 274,701 Q371,699 461,689 L458,670 Q338,678 274,678 Q235,678 215.5,677 Q196,676 170.5,671.5 Q145,667 133.5,657.5 Q122,648 110.5,631 Q99,614 95,588 Q91,562 91,524 Q91,448 116,413.5 Q141,379 200,371 L353,350 Q429,341 460.5,300 Q492,259 492,169 Q492,121 482.5,87.5 Q473,54 457.5,34.5 Q442,15 413.5,5 Q385,-5 356.5,-8 Q328,-11 282,-11 Q172,-11 78,0 L81,19 Q185,11 283,12 Q338,13 369,18 Q400,23 424,39.5 Q448,56 457.5,87 Q467,118 467,169 Q467,250 441.5,284 Q416,318 353,326"/> 
            <glyph glyph-name="š" unicode="&#x161;" horiz-adv-x="437" d=" M400,686 L263,569 L245,569 L108,686 L121,698 L250,596 L258,596 L388,698 M328,221 L166,241 Q114,247 88,276 Q62,305 62,365 Q62,449 101,471.5 Q140,494 239,492 Q338,490 425,480 L422,462 Q326,469 239,470 Q201,471 181,470 Q161,469 139.5,464 Q118,459 108.5,447.5 Q99,436 92.5,416 Q86,396 86,365 Q86,314 106,291.5 Q126,269 166,264 L328,244 Q437,230 437,122 Q437,77 425.5,50 Q414,23 387,10 Q360,-3 330,-7 Q300,-11 248,-11 Q154,-11 74,0 L77,18 Q164,10 249,11 Q345,13 379,33 Q413,53 413,122 Q413,210 328,221"/> 
            <glyph glyph-name="Ţ" unicode="&#x162;" horiz-adv-x="537" d=" M537,690 L537,668 L294,668 L294,0 L269,0 L269,668 L27,668 L27,690 M250,-63 L253,-49 Q292,-47 312,-63 Q332,-79 331,-114 Q330,-166 292,-196.5 Q254,-227 192,-219 L196,-204 Q247,-206 278,-179.5 Q309,-153 309,-114 Q309,-86 296,-75 Q283,-64 250,-63"/> 
            </font>
</defs>
</svg>
